<svg xmlns="http://www.w3.org/2000/svg" viewBox="0 0 76.16 151.89"><defs><style>.cls-1{fill:#fefefe;}.cls-2,.cls-3{fill:#ffd524;}.cls-2,.cls-5{fill-rule:evenodd;}.cls-4,.cls-5{fill:#545e68;}.cls-6{fill:#d2d3d5;}</style></defs><title>Recurso 8</title><g id="Capa_2" data-name="Capa 2"><g id="Capa_1-2" data-name="Capa 1"><g id="_2508463337584" data-name=" 2508463337584"><path class="cls-1" d="M11.06,2.79H65.77a7.57,7.57,0,0,1,7.57,7.57v131A7.57,7.57,0,0,1,65.77,149H11.44a7.57,7.57,0,0,1-7.57-7.55l-.38-131a7.57,7.57,0,0,1,7.57-7.59Z"/><path class="cls-2" d="M63.94,6.35V7.49a.09.09,0,0,0,.09.09h3.44a.09.09,0,0,0,.09-.09V6.35a.09.09,0,0,0-.09-.09H64A.09.09,0,0,0,63.94,6.35ZM64,6.17a.18.18,0,0,0-.17.18V7.49a.18.18,0,0,0,.17.18h3.44a.17.17,0,0,0,.17-.18V6.35a.17.17,0,0,0-.17-.18Zm3.7.18V7.49a.27.27,0,0,1-.26.27H64a.27.27,0,0,1-.26-.27V6.35A.27.27,0,0,1,64,6.08h3.44A.27.27,0,0,1,67.73,6.35Zm.36.57a.28.28,0,0,1-.27.31V6.61a.28.28,0,0,1,.27.31Z"/><path class="cls-3" d="M61.77,7.17a.54.54,0,0,1,.34.12l-.34.38-.34-.38A.54.54,0,0,1,61.77,7.17Zm0-.54a1.08,1.08,0,0,1,.7.26l-.15.17a.87.87,0,0,0-.55-.2.85.85,0,0,0-.55.2l-.15-.17A1.08,1.08,0,0,1,61.77,6.63Zm0-.55a1.7,1.7,0,0,1,1.06.41l-.14.16a1.43,1.43,0,0,0-.92-.34,1.41,1.41,0,0,0-.92.34l-.14-.16a1.68,1.68,0,0,1,1.06-.41Z"/><path class="cls-3" d="M71.29,140.15A6.63,6.63,0,0,1,64.87,147H12.19a7,7,0,0,1-6.9-6.87V10.41A6.63,6.63,0,0,1,12.19,4h6.09c1.29,0,1.77-.15,1.85,1.48A3.17,3.17,0,0,0,21,7.56a4.59,4.59,0,0,0,2,1.22,6.09,6.09,0,0,0,1.69.32H52.48a5.73,5.73,0,0,0,1.69-.36,4.53,4.53,0,0,0,2-1.18,3,3,0,0,0,.85-2C57.07,3.91,57.55,4,58.84,4h6a6.22,6.22,0,0,1,6.42,6.39V140.15ZM34.43,4.65h8.26a.57.57,0,0,1,.63.53.57.57,0,0,1-.63.53H34.43a.57.57,0,0,1-.63-.53A.57.57,0,0,1,34.43,4.65ZM47,4.84a.93.93,0,0,1-1.85,0,.93.93,0,1,1,1.85,0ZM75.31,34.48V10.83A10.83,10.83,0,0,0,64.48,0H11.85A11.25,11.25,0,0,0,.63,11.22v8.67a.63.63,0,0,0-.63.63V25a.64.64,0,0,0,.63.64v5.29a.63.63,0,0,0-.63.63V41a.64.64,0,0,0,.63.64v3.17a.63.63,0,0,0-.63.63V55a.64.64,0,0,0,.63.64v85a11.29,11.29,0,0,0,11.26,11.25H64.48a10.86,10.86,0,0,0,10.83-10.83V52h.21a.64.64,0,0,0,.64-.63V35.12a.64.64,0,0,0-.64-.64Z"/><path class="cls-1" d="M42.69,4.65H34.43a.57.57,0,0,0-.63.53.57.57,0,0,0,.63.53h8.26a.57.57,0,0,0,.63-.53A.57.57,0,0,0,42.69,4.65Z"/><path class="cls-1" d="M46.1,3.91a.93.93,0,1,0,0,1.85.93.93,0,0,0,0-1.85Z"/></g><circle class="cls-4" cx="21.75" cy="28.61" r="11.3"/><circle class="cls-1" cx="21.75" cy="28.61" r="8.47"/><path class="cls-2" d="M20.48,27.24h2.87v6h.86v1.09h-4.6V33.27h.87v-5h-1V27.24Zm1.34-4.76a1.89,1.89,0,1,1-1.88,1.88A1.89,1.89,0,0,1,21.82,22.48Z"/><path class="cls-5" d="M38.72,22.63H65.77a1.8,1.8,0,0,1,1.79,1.79h0a1.8,1.8,0,0,1-1.79,1.79h-27a1.8,1.8,0,0,1-1.79-1.79h0A1.8,1.8,0,0,1,38.72,22.63Zm0,6.67H65.77a1.8,1.8,0,0,1,1.79,1.79h0a1.8,1.8,0,0,1-1.79,1.79h-27a1.8,1.8,0,0,1-1.79-1.79h0A1.8,1.8,0,0,1,38.72,29.3Zm19.45,7.06a1.94,1.94,0,1,1-1.93,1.94A1.94,1.94,0,0,1,58.17,36.36Zm-19.45.21H52.19A1.79,1.79,0,0,1,54,38.36h0a1.79,1.79,0,0,1-1.78,1.79H38.72a1.8,1.8,0,0,1-1.79-1.79h0A1.8,1.8,0,0,1,38.72,36.57Z"/><rect class="cls-6" x="9.02" y="51.41" width="58.62" height="30.26" rx="1.91"/><path class="cls-5" d="M13.64,54.44H63.39a1.79,1.79,0,0,1,1.78,1.79h0A1.79,1.79,0,0,1,63.39,58H13.64a1.79,1.79,0,0,1-1.79-1.79h0A1.8,1.8,0,0,1,13.64,54.44Z"/><path class="cls-5" d="M13.64,61.83H63.39a1.79,1.79,0,0,1,1.78,1.79h0a1.79,1.79,0,0,1-1.78,1.79H13.64a1.8,1.8,0,0,1-1.79-1.79h0A1.8,1.8,0,0,1,13.64,61.83Z"/><path class="cls-5" d="M13.64,69.93H34.13a1.79,1.79,0,0,1,1.79,1.79h0a1.79,1.79,0,0,1-1.79,1.79H13.64a1.8,1.8,0,0,1-1.79-1.79h0A1.8,1.8,0,0,1,13.64,69.93Z"/><path class="cls-5" d="M42.77,69.93h20.5a1.79,1.79,0,0,1,1.78,1.79h0a1.79,1.79,0,0,1-1.78,1.79H42.77A1.79,1.79,0,0,1,41,71.72h0A1.79,1.79,0,0,1,42.77,69.93Z"/><rect class="cls-6" x="9.02" y="88.82" width="58.62" height="30.26" rx="1.91"/><path class="cls-5" d="M13.64,94.84H63.39a1.78,1.78,0,0,1,1.78,1.78h0a1.79,1.79,0,0,1-1.78,1.79H13.64a1.79,1.79,0,0,1-1.79-1.79h0A1.79,1.79,0,0,1,13.64,94.84Zm0,7.38H63.39A1.79,1.79,0,0,1,65.17,104h0a1.79,1.79,0,0,1-1.78,1.79H13.64A1.8,1.8,0,0,1,11.85,104h0A1.8,1.8,0,0,1,13.64,102.22Zm0,8H52a1.78,1.78,0,0,1,1.78,1.78h0A1.79,1.79,0,0,1,52,113.84H13.64a1.79,1.79,0,0,1-1.79-1.79h0A1.79,1.79,0,0,1,13.64,110.27Z"/></g></g></svg>