<svg xmlns="http://www.w3.org/2000/svg" viewBox="0 0 76.16 151.89"><defs><style>.cls-1,.cls-6{fill:#fefefe;}.cls-2,.cls-3{fill:#ffd524;}.cls-2,.cls-5,.cls-8,.cls-9{fill-rule:evenodd;}.cls-4{fill:#201e1e;}.cls-5{fill:#545e68;}.cls-6{isolation:isolate;font-size:5.8px;font-family:MyriadPro-Regular, Myriad Pro;}.cls-7{letter-spacing:0em;}.cls-8{fill:#fff;}.cls-9{fill:#4f5e69;}</style></defs><title>Recurso 6</title><g id="Capa_2" data-name="Capa 2"><g id="Capa_1-2" data-name="Capa 1"><g id="_2508363078272" data-name=" 2508363078272"><path class="cls-1" d="M11.06,2.79H65.77a7.57,7.57,0,0,1,7.57,7.57v131A7.57,7.57,0,0,1,65.77,149H11.44a7.57,7.57,0,0,1-7.57-7.55l-.38-131a7.57,7.57,0,0,1,7.57-7.59Z"/><path class="cls-2" d="M63.94,6.35V7.49a.09.09,0,0,0,.09.09h3.44a.09.09,0,0,0,.09-.09V6.35a.09.09,0,0,0-.09-.09H64A.09.09,0,0,0,63.94,6.35ZM64,6.17a.17.17,0,0,0-.17.18V7.49a.17.17,0,0,0,.17.18h3.44a.17.17,0,0,0,.17-.18V6.35a.17.17,0,0,0-.17-.18Zm3.7.18V7.49a.27.27,0,0,1-.26.27H64a.27.27,0,0,1-.26-.27V6.35A.27.27,0,0,1,64,6.08h3.44A.27.27,0,0,1,67.73,6.35Zm.36.57a.28.28,0,0,1-.27.31V6.61a.28.28,0,0,1,.27.31Z"/><path class="cls-3" d="M61.77,7.17a.54.54,0,0,1,.34.12l-.34.38-.34-.38A.54.54,0,0,1,61.77,7.17Zm0-.54a1.08,1.08,0,0,1,.7.26l-.15.17a.87.87,0,0,0-.55-.2.85.85,0,0,0-.55.2l-.15-.17A1.08,1.08,0,0,1,61.77,6.63Zm0-.55a1.7,1.7,0,0,1,1.06.41l-.14.16a1.43,1.43,0,0,0-.92-.34,1.41,1.41,0,0,0-.92.34l-.14-.16a1.68,1.68,0,0,1,1.06-.41Z"/><path class="cls-3" d="M71.29,140.15A6.63,6.63,0,0,1,64.87,147H12.19a7,7,0,0,1-6.9-6.87V10.41A6.63,6.63,0,0,1,12.19,4h6.09c1.29,0,1.77-.15,1.85,1.48A3.21,3.21,0,0,0,21,7.56a4.69,4.69,0,0,0,2,1.22,6,6,0,0,0,1.69.32H52.48a5.73,5.73,0,0,0,1.69-.36,4.53,4.53,0,0,0,2-1.18,3,3,0,0,0,.85-2C57.07,3.91,57.55,4,58.84,4h6a6.22,6.22,0,0,1,6.42,6.39V140.15ZM34.43,4.65h8.26a.57.57,0,0,1,.63.53.57.57,0,0,1-.63.53H34.43a.57.57,0,0,1-.63-.53A.57.57,0,0,1,34.43,4.65ZM47,4.84a.93.93,0,0,1-1.85,0,.93.93,0,1,1,1.85,0ZM75.31,34.48V10.83A10.83,10.83,0,0,0,64.48,0H11.85A11.25,11.25,0,0,0,.63,11.22v8.67a.63.63,0,0,0-.63.63V25a.64.64,0,0,0,.63.64v5.29a.63.63,0,0,0-.63.63V41a.64.64,0,0,0,.63.64v3.17a.63.63,0,0,0-.63.63V55a.64.64,0,0,0,.63.64v85a11.29,11.29,0,0,0,11.26,11.25H64.48a10.86,10.86,0,0,0,10.83-10.83V52h.21a.64.64,0,0,0,.64-.63V35.12a.64.64,0,0,0-.64-.64Z"/><path class="cls-1" d="M42.69,4.65H34.43a.57.57,0,0,0-.63.53.57.57,0,0,0,.63.53h8.26a.57.57,0,0,0,.63-.53A.57.57,0,0,0,42.69,4.65Z"/><path class="cls-1" d="M46.1,3.91a.93.93,0,1,0,0,1.85.93.93,0,0,0,0-1.85Z"/></g><path class="cls-4" d="M11.12,40h7v2.47H12.38v6.5H9.87V40Zm43.32,0h9.88v9H61.81v-6.5H54.44Zm9.88,46.42v9.15H54.44V93.07h7.37V86.39ZM18.09,95.54H9.87V86.39h2.51v6.68h5.71Z"/><path class="cls-5" d="M23.29,110H52.74a5.79,5.79,0,0,1,5.78,5.77h0a5.79,5.79,0,0,1-5.78,5.77H23.29a5.79,5.79,0,0,1-5.77-5.77h0A5.79,5.79,0,0,1,23.29,110Z"/><text class="cls-6" transform="translate(26.4 117.76)">ES<tspan class="cls-7" x="5.71" y="0">C</tspan><tspan x="9.1" y="0">ANEA</tspan></text><path class="cls-8" d="M37,90.35H15.9a1.71,1.71,0,0,1-.39,0,1.25,1.25,0,0,1-1-1.22.86.86,0,0,1,0-.16q0-20.84,0-41.67a1.87,1.87,0,0,1,0-.47,1.27,1.27,0,0,1,1.21-.95H58a2,2,0,0,1,.43,0,1.27,1.27,0,0,1,1,1.19V88.92a1.75,1.75,0,0,1,0,.46,1.25,1.25,0,0,1-1.2,1,1.62,1.62,0,0,1-.22,0Z"/><path class="cls-9" d="M53.59,76h1.07c.27,0,.38.11.38.37v2.13c0,.26-.11.37-.38.37H54c-.25,0-.36.11-.37.36s0,.47,0,.7-.11.38-.37.38H51.08c-.27,0-.38-.12-.39-.39v-.69c0-.25-.1-.36-.36-.36h-.71c-.26,0-.37.11-.37.36v2.17a.3.3,0,0,1-.34.33c-.23,0-.47,0-.7,0s-.43.12-.41.41,0,.45,0,.67-.11.36-.37.36h-.61c-.39,0-.47-.08-.47-.46V80.59a.28.28,0,0,0-.29-.29H45.2a.28.28,0,0,0-.29.31c0,.25,0,.49,0,.73a.88.88,0,0,1,0,.17.29.29,0,0,1-.24.21.85.85,0,0,1-.16,0H42.33a.3.3,0,0,0-.32.33c0,.21,0,.43,0,.65v.15a.3.3,0,0,1-.31.3h-.83a.28.28,0,0,1-.3-.29.71.71,0,0,1,0-.14v-2.1a.3.3,0,0,0-.33-.33H39.5c-.27,0-.38-.11-.38-.38v-.69c0-.26.11-.37.37-.37H41.7a.31.31,0,0,0,.31-.32v-.79a.32.32,0,0,0-.34-.33h-.79a.3.3,0,0,1-.32-.31v-.8A.31.31,0,0,1,40.9,76c.25,0,.5,0,.76,0a.31.31,0,0,0,.35-.34V73.43a.31.31,0,0,1,.31-.31h.13c.69,0,1.38,0,2.07,0a.34.34,0,0,0,.39-.39c0-.68,0-1.36,0-2v-.16a.29.29,0,0,1,.29-.27c.28,0,.57,0,.85,0a.29.29,0,0,1,.3.3v.81a.32.32,0,0,0,.32.32h.83a.3.3,0,0,1,.3.31v.77c0,.24.12.35.35.35h.71c.28,0,.39.11.39.39v2.15a.31.31,0,0,0,.34.33c.21,0,.42,0,.63,0h.16a.29.29,0,0,1,.31.32c0,.23,0,.46,0,.69a.66.66,0,0,0,0,.14.29.29,0,0,0,.3.28q.42,0,.84,0a.29.29,0,0,0,.3-.31c0-.2,0-.41,0-.61v-.18a.31.31,0,0,1,.34-.33Zm-10.13.7v1.88a.3.3,0,0,0,.28.29h3.77a.3.3,0,0,0,.29-.29V74.85a.3.3,0,0,0-.29-.29H43.73a.32.32,0,0,0-.27.27v1.86Zm-7.25-8.85c0-.34.13-.46.46-.46,1.17,0,2.35,0,3.52,0,.26,0,.37-.1.37-.37v-.69a.33.33,0,0,0-.37-.37H38a.3.3,0,0,1-.33-.33c0-.26,0-.51,0-.77a.3.3,0,0,1,.33-.33h.79a.32.32,0,0,0,.33-.31V62.06a.76.76,0,0,0,0-.15.3.3,0,0,0-.28-.26H36.49a.32.32,0,0,1-.27-.28v-.14c0-.24,0-.47,0-.71a.28.28,0,0,0-.3-.3H35.1a.29.29,0,0,1-.32-.32.66.66,0,0,1,0-.14v-3.4c0-.35-.1-.44-.45-.44s-.43,0-.65,0a.32.32,0,0,1-.36-.35c0-.24,0-.47,0-.71s-.11-.37-.37-.37h-.69c-.27,0-.38.11-.39.38s0,.48,0,.72a.3.3,0,0,1-.33.33h-.78a.31.31,0,0,0-.33.33v5.1a.3.3,0,0,0,.3.31h.85a.3.3,0,0,0,.29-.31.65.65,0,0,0,0-.14V57.78a.86.86,0,0,1,0-.16.29.29,0,0,1,.28-.27h.89a.29.29,0,0,1,.27.29.66.66,0,0,1,0,.14v3.44a.71.71,0,0,0,0,.14.29.29,0,0,0,.26.28h.86a.3.3,0,0,1,.32.32.45.45,0,0,1,0,.11v3.44a.41.41,0,0,1,0,.11.31.31,0,0,1-.33.32H29.28a.29.29,0,0,0-.3.29v.84a.29.29,0,0,0,.29.29.75.75,0,0,0,.15,0h3.51c.29,0,.39.11.39.39s0,.47,0,.7a.3.3,0,0,0,.35.35h.73a.31.31,0,0,1,.36.36q0,.34,0,.69c0,.27-.11.38-.38.39s-.48,0-.73,0a.29.29,0,0,0-.33.32c0,.74,0,1.48,0,2.21a.3.3,0,0,0,.32.33H36a.3.3,0,0,0,.26-.26.86.86,0,0,0,0-.16V70.28C36.22,69.46,36.22,68.65,36.21,67.84ZM29,55.19v4.74a.3.3,0,0,1-.29.28H19.15a.29.29,0,0,1-.3-.29V50.58a.56.56,0,0,1,0-.13.29.29,0,0,1,.28-.27H28.7a.3.3,0,0,1,.28.27.85.85,0,0,1,0,.16Zm-8.68,0v3.3c0,.24,0,.28.28.28h6.77c.12,0,.17-.07.18-.19V51.78a.18.18,0,0,0-.17-.17h-6.9a.17.17,0,0,0-.16.17V55.2Zm29.67,5H45.19a.29.29,0,0,1-.28-.28V50.49a.3.3,0,0,1,.32-.32h9.42c.23,0,.39.11.39.39v9.35a.29.29,0,0,1-.31.3H50Zm-3.62-5v3.34c0,.2,0,.26.25.26h6.74c.2,0,.25-.06.25-.25V51.92c0-.28,0-.31-.31-.31H46.56c-.14,0-.2.07-.21.2v3.37ZM23.93,76h4.76a.29.29,0,0,1,.29.28v9.44a.3.3,0,0,1-.32.31H19.13a.3.3,0,0,1-.28-.29.48.48,0,0,1,0-.12V76.41a.65.65,0,0,1,0-.14.29.29,0,0,1,.27-.27h4.81ZM20.3,81v3.34c0,.19.05.24.25.25h6.67c.28,0,.31,0,.31-.32V77.61a.18.18,0,0,0-.18-.19H20.48a.18.18,0,0,0-.18.19V81Zm25-19.36h-.16a.28.28,0,0,0-.26.25v2.24c0,.25-.12.36-.37.37s-.44,0-.66,0-.44.1-.42.43,0,.43,0,.64-.12.37-.38.37h-.71c-.25,0-.36.11-.36.36v2.16a.31.31,0,0,0,.35.35h.73c.26,0,.37-.11.37-.38v-.7c0-.24.12-.35.36-.36h.71c.26,0,.37.12.38.38v.7c0,.25.11.36.35.36H46c.25,0,.36.11.36.35v.68c0,.3.11.4.41.41h.68a.33.33,0,0,1,.36.37c0,.24,0,.48,0,.72a.31.31,0,0,0,.35.35h2.19c.24,0,.35-.11.35-.36s0-.48,0-.72a.3.3,0,0,0-.35-.35h-.73c-.25,0-.36-.11-.36-.35v-.69c0-.28-.11-.39-.39-.39h-.71a.31.31,0,0,1-.35-.35c0-.23,0-.47,0-.7a.34.34,0,0,1,.38-.39q.36,0,.72,0a.31.31,0,0,0,.35-.34c0-.25,0-.49,0-.74A.31.31,0,0,0,48.9,66h-.66c-.27,0-.46-.09-.44-.43s0-.44,0-.66-.11-.35-.36-.35H46.7a.32.32,0,0,1-.35-.34v-.75a.32.32,0,0,1,.36-.35h.73c.25,0,.36.12.36.37v.75a.31.31,0,0,0,.32.32h.82a.3.3,0,0,0,.31-.27V62c0-.28-.1-.39-.39-.39H45.33Zm-15,10H31.5c.26,0,.37-.11.37-.36s0-.48,0-.72a.33.33,0,0,0-.36-.36h-.67c-.32,0-.42-.1-.42-.41v-.68a.32.32,0,0,0-.36-.35h-.73c-.24,0-.36.11-.36.35v.71c0,.26-.11.37-.37.38H27.9c-.25,0-.37-.11-.37-.36V69.2c0-.27.11-.38.39-.38h.74a.3.3,0,0,0,.32-.31q0-.41,0-.81a.31.31,0,0,0-.31-.32h-.13c-.22,0-.45,0-.67,0s-.33-.11-.34-.34v-.11c0-.21,0-.42,0-.63a.32.32,0,0,0-.36-.35H24.92a.29.29,0,0,0-.28.28v.86a.3.3,0,0,0,.27.28h.83a.32.32,0,0,1,.35.35v2.11a.49.49,0,0,1,0,.12.29.29,0,0,1-.29.29h-.15c-.7,0-1.4,0-2.1,0a.31.31,0,0,0-.35.34v2.18a.31.31,0,0,0,.34.34h.73c.27,0,.38-.11.38-.37s0-.46,0-.69a.32.32,0,0,1,.37-.37h5.31ZM55,66.39a.92.92,0,0,0,0-.16.27.27,0,0,0-.28-.27h-.87a.28.28,0,0,0-.28.28.49.49,0,0,0,0,.12c0,.23,0,.46,0,.69a.3.3,0,0,1-.33.33H51.09c-.29,0-.4.11-.4.39v2.1c0,.27.12.38.39.39h2.17a.31.31,0,0,1,.29.15.54.54,0,0,1,.05.22c0,.25,0,.5,0,.74a.3.3,0,0,0,.32.33h.79a.31.31,0,0,0,.33-.32v-5Zm-17.37,10c0-.27.1-.37.37-.38s.48,0,.73,0,.34-.12.35-.35V74.9a.31.31,0,0,0-.35-.34H38c-.26,0-.37-.12-.37-.36s0-.5,0-.74a.32.32,0,0,0-.33-.34h-.79a.31.31,0,0,0-.33.33v.12c0,.68,0,1.36,0,2a.56.56,0,0,1-.05.25.29.29,0,0,1-.29.13h-.75c-.23,0-.34.11-.34.35s0,.48,0,.72.1.36.36.36h.74a.31.31,0,0,1,.34.33V79.9c0,.28.11.4.39.4h.68c.27,0,.38-.12.38-.39V76.37Zm-8.26-3.25H27.89a.31.31,0,0,0-.36.31v.82a.32.32,0,0,0,.31.31h2.3a.29.29,0,0,1,.28.25.91.91,0,0,1,0,.17v2.07c0,.27.1.37.37.37H33a.35.35,0,0,0,.38-.38c0-.7,0-1.41,0-2.12a.34.34,0,0,0-.39-.37h-.73a.32.32,0,0,1-.34-.33V74.1c0-.22,0-.44,0-.66a.3.3,0,0,0-.31-.32H29.41ZM34.4,86c.26,0,.37-.11.37-.36,0-1.2,0-2.39,0-3.58,0-.25-.12-.36-.37-.36h-.69a.35.35,0,0,0-.39.39q0,.36,0,.72a.3.3,0,0,1-.33.33h-2.3a.28.28,0,0,0-.25.26.62.62,0,0,0,0,.13v2.07a.53.53,0,0,0,0,.13.28.28,0,0,0,.26.26h3.7Zm9.06-34c0-.27-.11-.38-.38-.38h-.7c-.26,0-.37.11-.37.38s0,.44,0,.67a.33.33,0,0,1-.39.38h-.68c-.27,0-.38.11-.38.38v2.11c0,.27.11.38.38.38h.72a.37.37,0,0,1,.15,0,.29.29,0,0,1,.2.3V57a.29.29,0,0,0,.3.33h.85a.29.29,0,0,0,.3-.3V52Zm-7.24,7.78a.75.75,0,0,0,0,.15.3.3,0,0,0,.3.29h.85a.3.3,0,0,0,.3-.29V57.77a.75.75,0,0,1,0-.15.3.3,0,0,1,.27-.27h2.33a.28.28,0,0,0,.29-.27,8.81,8.81,0,0,0,0-.89.28.28,0,0,0-.28-.27H38.05c-.27,0-.38-.11-.38-.38s0-.49,0-.74a.29.29,0,0,0-.28-.31h-.87a.3.3,0,0,0-.29.28.85.85,0,0,0,0,.16v4.85Zm13,24.47a.32.32,0,0,1-.21.34l-.18,0h-.74a.28.28,0,0,0-.31.28q0,.44,0,.87a.29.29,0,0,0,.28.28h2.3a.3.3,0,0,0,.3-.31.65.65,0,0,0,0-.14v-2c0-.25.12-.37.37-.37h.71c.26,0,.37-.11.37-.36v-.72a.3.3,0,0,0-.35-.35H49.62a.34.34,0,0,0-.37.37c0,.35,0,.71,0,1.06ZM30.43,54.15a.31.31,0,0,0,.34.33h.76a.31.31,0,0,0,.34-.35c0-.21,0-.43,0-.64S32,53,32.32,53h2.09c.25,0,.36-.11.36-.35q0-1.08,0-2.16c0-.24-.12-.35-.36-.36h-.73a.33.33,0,0,0-.36.36c0,.23,0,.47,0,.7s-.11.38-.38.38H30.8a.37.37,0,0,0-.25.06.33.33,0,0,0-.12.28v2.2ZM55,82.08c0-.24-.12-.35-.36-.35s-.48,0-.73,0a.32.32,0,0,0-.36.35c0,.24,0,.48,0,.72s-.11.36-.37.36h-.74a.3.3,0,0,0-.33.32c0,.74,0,1.49,0,2.24v0a.32.32,0,0,0,.29.29h2.35a.28.28,0,0,0,.25-.25.86.86,0,0,0,0-.16V82.08ZM38.76,83.16c.24,0,.36-.11.36-.35V80.64a.31.31,0,0,0-.35-.34H38a.3.3,0,0,0-.35.35c0,.23,0,.45,0,.68s-.11.41-.41.4-.44,0-.67,0-.37.11-.37.37v.69c0,.26.11.37.37.37h2.17Zm3.61,0a.32.32,0,0,0-.36.36v2.16a.31.31,0,0,0,.35.35h.74a.31.31,0,0,0,.36-.36V85c0-.24.11-.35.36-.35h.73a.33.33,0,0,0,.36-.36v-.72c0-.25-.12-.36-.37-.36H42.37Zm.72-18.64c.25,0,.37-.11.37-.36V62c0-.25-.11-.36-.36-.36h-.72c-.26,0-.37.11-.37.36v.72a.3.3,0,0,1-.35.35h-.73c-.25,0-.36.11-.37.36v.71c0,.26.11.37.38.37h2.15ZM51,61.65c-.23,0-.34.12-.35.35v.74a.31.31,0,0,0,.36.34h.72c.26,0,.37.12.37.36v.74a.32.32,0,0,0,.33.34h.79a.31.31,0,0,0,.33-.33V62c0-.27-.1-.38-.38-.38H51ZM21.74,72c0-.24-.11-.35-.34-.35h-.76a.3.3,0,0,0-.34.34c0,.25,0,.49,0,.74a.33.33,0,0,1-.36.35c-.24,0-.48,0-.71,0s-.38.11-.38.37v.7c0,.25.11.37.36.37H21.4a.31.31,0,0,0,.34-.34V72Zm17.75-1.79a.34.34,0,0,0-.38.37c0,.24,0,.47,0,.71s.11.36.36.36H43.1c.25,0,.36-.12.36-.37v-.69c0-.27-.11-.37-.39-.37H39.49Zm-6.17,9.68a.33.33,0,0,0,.37.37h.71c.25,0,.37-.12.37-.37,0-.71,0-1.43,0-2.14,0-.25-.12-.36-.37-.37s-.46,0-.69,0a.35.35,0,0,0-.39.38c0,.35,0,.71,0,1.06ZM27.17,64.52c.25,0,.36-.11.36-.35v-.74a.31.31,0,0,0-.35-.35H25a.32.32,0,0,0-.34.35q0,.36,0,.72a.33.33,0,0,0,.36.37h2.17Zm22.42,0a.3.3,0,0,0-.34.33v.77a.31.31,0,0,0,.34.33h2.2a.31.31,0,0,0,.35-.34c0-.24,0-.48,0-.72s-.11-.37-.37-.37H49.59ZM30.05,63.08a.33.33,0,0,0,.38-.37V62c0-.25-.11-.36-.37-.36H27.89c-.25,0-.36.11-.36.37v.69c0,.27.11.37.39.37h2.13Zm-8.67,0c.25,0,.36-.11.36-.35V62c0-.25-.11-.36-.35-.36H19.21c-.25,0-.36.11-.36.35v.71c0,.26.1.37.37.37h2.16ZM30.79,80.3c-.25,0-.36.1-.36.35v.72c0,.25.11.35.35.35q1.09,0,2.19,0a.3.3,0,0,0,.35-.35c0-.24,0-.47,0-.71s-.1-.36-.36-.36H30.79ZM38,51.61a.3.3,0,0,0-.35.35c0,.24,0,.49,0,.73s.11.35.34.35h2.2c.24,0,.35-.11.35-.34V52a.32.32,0,0,0-.36-.35H38ZM20,68.82a.32.32,0,0,0,.34-.32v-.8a.3.3,0,0,0-.32-.31q-.4,0-.81,0a.29.29,0,0,0-.32.32c0,.26,0,.52,0,.79a.3.3,0,0,0,.32.32H20Zm3.23.35v0a.3.3,0,0,0-.33-.33h-.79a.3.3,0,0,0-.33.31v.81a.3.3,0,0,0,.33.31c.26,0,.53,0,.8,0a.3.3,0,0,0,.32-.31v-.77Zm10.13-5.76a.3.3,0,0,0-.33-.33h-.78a.3.3,0,0,0-.33.33q0,.39,0,.78a.31.31,0,0,0,.32.33H33a.3.3,0,0,0,.32-.34c0-.13,0-.25,0-.38S33.33,63.54,33.32,63.41Zm-10.13,0a.31.31,0,0,0-.33-.34h-.79a.31.31,0,0,0-.33.32v.8a.31.31,0,0,0,.32.32h.81a.31.31,0,0,0,.32-.33v-.77Zm1.08,5.4h0a.32.32,0,0,0,.34-.32v-.8a.3.3,0,0,0-.32-.31c-.27,0-.55,0-.82,0a.29.29,0,0,0-.31.3v.82a.31.31,0,0,0,.32.31h.76Zm-5.42-3.2a.3.3,0,0,0,.32.33H20a.3.3,0,0,0,.32-.31v-.8a.31.31,0,0,0-.33-.32h-.8a.29.29,0,0,0-.32.32c0,.13,0,.27,0,.4S18.84,65.5,18.85,65.62Zm24.29-5.41a.3.3,0,0,0,.32-.31v-.8a.31.31,0,0,0-.33-.32h-.79a.3.3,0,0,0-.33.32c0,.26,0,.52,0,.79a.3.3,0,0,0,.34.32h.79ZM42,50.9v-.4a.3.3,0,0,0-.31-.32h-.83a.28.28,0,0,0-.3.3c0,.28,0,.55,0,.83a.29.29,0,0,0,.3.3h.84a.3.3,0,0,0,.3-.31v-.4ZM38.79,73.12a.3.3,0,0,0,.32-.31q0-.41,0-.81a.29.29,0,0,0-.3-.31H38a.3.3,0,0,0-.31.32c0,.26,0,.53,0,.8a.29.29,0,0,0,.33.31h.79Zm-10.93-8.6a.3.3,0,0,0-.33.31v.81a.3.3,0,0,0,.32.31h.81a.3.3,0,0,0,.32-.32c0-.27,0-.53,0-.79a.29.29,0,0,0-.32-.32h-.8Zm-4.32,0c-.23,0-.35.11-.35.33v.77a.3.3,0,0,0,.33.33h.78a.31.31,0,0,0,.34-.33v-.78a.31.31,0,0,0-.33-.32h-.77Zm30.05,9.31v.42a.31.31,0,0,0,.31.31h.82a.31.31,0,0,0,.32-.3v-.84a.3.3,0,0,0-.3-.3H53.9a.29.29,0,0,0-.3.31c0,.14,0,.27,0,.4ZM19.17,70.26a.29.29,0,0,0-.32.32q0,.39,0,.78a.29.29,0,0,0,.31.32H20a.28.28,0,0,0,.29-.29q0-.42,0-.84a.28.28,0,0,0-.31-.29c-.14,0-.27,0-.4,0S19.31,70.25,19.17,70.26Zm19.95,14a.31.31,0,0,0,.33.33h.79a.3.3,0,0,0,.32-.31c0-.28,0-.55,0-.82a.3.3,0,0,0-.31-.31h-.82a.3.3,0,0,0-.31.32c0,.13,0,.27,0,.4S39.11,84.14,39.12,84.27Zm0-24.41v0a.29.29,0,0,0,.32.32h.79a.29.29,0,0,0,.33-.31c0-.27,0-.54,0-.8a.3.3,0,0,0-.33-.32h-.79a.29.29,0,0,0-.32.32c0,.13,0,.26,0,.39ZM38.4,84.6H38a.29.29,0,0,0-.31.3c0,.28,0,.55,0,.82A.3.3,0,0,0,38,86h.84a.29.29,0,0,0,.3-.3c0-.28,0-.55,0-.83a.3.3,0,0,0-.31-.3ZM23.92,61.65h-.4a.31.31,0,0,0-.33.32v.79a.3.3,0,0,0,.32.32h.81a.29.29,0,0,0,.32-.3V62a.31.31,0,0,0-.32-.3Zm18.09-4a.3.3,0,0,0-.32-.33h-.81a.29.29,0,0,0-.32.31v.8a.31.31,0,0,0,.33.32h.79a.31.31,0,0,0,.33-.34v-.76Zm-6.1,24a.27.27,0,0,0,.3-.3q0-.4,0-.81a.28.28,0,0,0-.31-.31h-.81a.28.28,0,0,0-.31.31q0,.4,0,.81a.27.27,0,0,0,.3.3c.14,0,.27,0,.41,0S35.77,81.73,35.91,81.72Zm9.71-4.3c.15,0,.29,0,.42,0a.29.29,0,0,0,.31-.3V76.3a.28.28,0,0,0-.3-.3c-.28,0-.55,0-.83,0a.28.28,0,0,0-.31.31c0,.26,0,.53,0,.8a.29.29,0,0,0,.33.31ZM26.09,54v-.55c0-.35-.09-.44-.44-.44H22a.32.32,0,0,0-.3.3V57a.32.32,0,0,0,.33.34h3.72a.3.3,0,0,0,.29-.29.76.76,0,0,0,0-.15V54ZM47.8,56.61V57a.31.31,0,0,0,.29.31h3.79a.29.29,0,0,0,.26-.28.56.56,0,0,0,0-.13V53.34a.3.3,0,0,0-.28-.3h-3.8a.25.25,0,0,0-.22.16.52.52,0,0,0,0,.21v3.19ZM25.71,83.17a.35.35,0,0,0,.38-.38c0-1.18,0-2.37,0-3.56a.34.34,0,0,0-.39-.37H22.12a.34.34,0,0,0-.38.38v3.54c0,.28.11.38.4.38h3.57Z"/></g></g></svg>