<svg xmlns="http://www.w3.org/2000/svg" viewBox="0 0 61.35 60.78"><defs><style>.cls-1{fill:#fff;}.cls-1,.cls-2{fill-rule:evenodd;}.cls-2{fill:#4f5e69;}</style></defs><title>Recurso 4</title><g id="Capa_2" data-name="Capa 2"><g id="Capa_1-2" data-name="Capa 1"><path class="cls-1" d="M30.69,60.78H1.92a2.32,2.32,0,0,1-.53,0A1.73,1.73,0,0,1,0,59.07V2A2.36,2.36,0,0,1,.07,1.3,1.74,1.74,0,0,1,1.71,0H59.43A2.37,2.37,0,0,1,60,.06a1.72,1.72,0,0,1,1.33,1.63V58.83a2.68,2.68,0,0,1-.05.63,1.72,1.72,0,0,1-1.64,1.32h-29Z"/><path class="cls-2" d="M53.39,41.17h1.46c.37,0,.52.14.52.5v2.91c0,.36-.15.5-.52.5s-.63,0-1,0-.5.15-.5.49,0,.65,0,1-.16.5-.51.51H50c-.37,0-.52-.16-.53-.53s0-.62,0-.94-.14-.49-.49-.5H48c-.35,0-.5.15-.5.5,0,.92,0,1.85,0,2.78a.91.91,0,0,1,0,.17A.42.42,0,0,1,47,49c-.32,0-.64,0-1,0a.49.49,0,0,0-.57.56c0,.3,0,.61,0,.92s-.15.49-.5.49h-.84c-.52,0-.64-.11-.64-.62v-2.7a1.34,1.34,0,0,0,0-.2.38.38,0,0,0-.39-.39H41.94a.39.39,0,0,0-.4.43c0,.33,0,.66,0,1a1,1,0,0,1,0,.24.37.37,0,0,1-.33.28H38a.42.42,0,0,0-.44.45c0,.3,0,.6,0,.9a1.21,1.21,0,0,1,0,.19.41.41,0,0,1-.42.42H36a.42.42,0,0,1-.42-.4V47.5a.41.41,0,0,0-.46-.45h-1c-.38,0-.52-.15-.52-.52s0-.63,0-.94.14-.5.51-.51H37a1.08,1.08,0,0,0,.18,0,.4.4,0,0,0,.42-.43c0-.36,0-.72,0-1.07a.42.42,0,0,0-.45-.46H36a.41.41,0,0,1-.43-.43c0-.36,0-.73,0-1.09a.41.41,0,0,1,.45-.43h1c.32,0,.48-.16.48-.47a1.08,1.08,0,0,0,0-.18V37.85a1.09,1.09,0,0,1,0-.18.41.41,0,0,1,.41-.42h3a.48.48,0,0,0,.54-.53c0-.93,0-1.86,0-2.79a1.7,1.7,0,0,1,0-.22.39.39,0,0,1,.39-.37q.59,0,1.17,0a.38.38,0,0,1,.4.4c0,.31,0,.62,0,.92v.2a.43.43,0,0,0,.44.43h1.13a.41.41,0,0,1,.41.43c0,.29,0,.58,0,.88v.17a.43.43,0,0,0,.48.48h1c.38,0,.53.15.53.53,0,.92,0,1.84,0,2.76a1.08,1.08,0,0,0,0,.18.42.42,0,0,0,.45.45H49a.39.39,0,0,1,.42.43c0,.31,0,.63,0,.94a1.34,1.34,0,0,0,0,.2.41.41,0,0,0,.41.38c.38,0,.77,0,1.15,0a.4.4,0,0,0,.41-.42c0-.28,0-.56,0-.84a1.93,1.93,0,0,1,0-.24.4.4,0,0,1,.45-.45Zm-13.84,1v2.38a1.09,1.09,0,0,0,0,.18.41.41,0,0,0,.38.39.75.75,0,0,0,.15,0H45a.66.66,0,0,0,.14,0,.41.41,0,0,0,.39-.4,1,1,0,0,0,0-.17V39.78a1.08,1.08,0,0,0,0-.18.41.41,0,0,0-.4-.39H39.93a.42.42,0,0,0-.37.38,1.21,1.21,0,0,0,0,.19ZM29.66,30c0-.46.17-.63.63-.62,1.6,0,3.2,0,4.8,0,.36,0,.51-.14.51-.5s0-.63,0-.94a.45.45,0,0,0-.51-.51h-3a.42.42,0,0,1-.45-.45c0-.35,0-.71,0-1.06a.42.42,0,0,1,.45-.45h1.08a.42.42,0,0,0,.44-.43.56.56,0,0,0,0-.13v-2.8a1.34,1.34,0,0,0,0-.2.42.42,0,0,0-.39-.35h-3a1.77,1.77,0,0,1-.23,0,.42.42,0,0,1-.37-.38,1.33,1.33,0,0,1,0-.2c0-.32,0-.64,0-1a.4.4,0,0,0-.42-.42h-1.1a.41.41,0,0,1-.44-.44,1.33,1.33,0,0,1,0-.2V14.34c0-.47-.13-.59-.61-.59h-.88c-.33,0-.49-.16-.49-.49s0-.64,0-1-.15-.51-.5-.51h-.95c-.37,0-.52.15-.53.52s0,.66,0,1a.42.42,0,0,1-.45.46H22.22a.4.4,0,0,0-.45.45.57.57,0,0,0,0,.13V21a1.09,1.09,0,0,0,0,.18.39.39,0,0,0,.4.41q.58,0,1.17,0a.4.4,0,0,0,.39-.42,1.34,1.34,0,0,0,0-.2V16.3a1.55,1.55,0,0,1,0-.22.4.4,0,0,1,.38-.37c.41,0,.81,0,1.22,0a.39.39,0,0,1,.37.39,1.33,1.33,0,0,1,0,.2V21a1.41,1.41,0,0,0,0,.2.41.41,0,0,0,.36.38h1.17a.41.41,0,0,1,.44.43.86.86,0,0,1,0,.16v4.68a.81.81,0,0,1,0,.16.43.43,0,0,1-.45.44h-7a.4.4,0,0,0-.4.41q0,.57,0,1.14a.39.39,0,0,0,.39.4h5c.39,0,.53.15.53.53s0,.64,0,1a.42.42,0,0,0,.48.47h1c.34,0,.5.16.5.5s0,.63,0,.94-.16.52-.53.52h-1a.4.4,0,0,0-.46.44c0,1,0,2,0,3a.41.41,0,0,0,.43.45h3.14a.4.4,0,0,0,.37-.35,1.62,1.62,0,0,0,0-.22V33.36C29.66,32.25,29.68,31.14,29.66,30ZM19.78,12.77V19a1.34,1.34,0,0,1,0,.2.41.41,0,0,1-.4.39h-13a.4.4,0,0,1-.41-.4.81.81,0,0,1,0-.16V6.47a1.09,1.09,0,0,1,0-.18.41.41,0,0,1,.39-.38H19.4a.42.42,0,0,1,.38.37,1.61,1.61,0,0,1,0,.22Zm-11.85,0v4.51c0,.33.05.38.38.38h9.24a.24.24,0,0,0,.25-.25.75.75,0,0,0,0-.15v-9a1,1,0,0,0,0-.17.22.22,0,0,0-.23-.22H8.15a.21.21,0,0,0-.22.22,1.34,1.34,0,0,0,0,.2Zm40.51,6.85H41.92a.4.4,0,0,1-.38-.38,1.34,1.34,0,0,1,0-.2V6.34A.42.42,0,0,1,42,5.91H54.84c.31,0,.53.15.53.53V19.21a.41.41,0,0,1-.43.41h-6.5ZM43.5,12.75V17.3c0,.29.08.36.35.36h9.2c.27,0,.34-.07.35-.34v-9c0-.38,0-.43-.44-.43H43.78c-.18,0-.26.08-.28.26v4.61ZM12.89,41.17h6.5a.41.41,0,0,1,.39.4,1,1,0,0,1,0,.17V54.29a.85.85,0,0,1,0,.16.4.4,0,0,1-.43.42h-13A.4.4,0,0,1,6,54.49a1.09,1.09,0,0,1,0-.18V41.74a1.34,1.34,0,0,1,0-.2.41.41,0,0,1,.37-.37h6.57ZM7.93,48v4.56c0,.27.07.34.33.34h9.12c.38,0,.42,0,.42-.43V43.55a1,1,0,0,0,0-.17.25.25,0,0,0-.25-.26H8.18a.25.25,0,0,0-.25.26,1.21,1.21,0,0,0,0,.19ZM42.11,21.58h-.22a.39.39,0,0,0-.35.34,1.93,1.93,0,0,0,0,.24c0,.94,0,1.89,0,2.83,0,.34-.16.49-.5.5s-.6,0-.9,0-.61.14-.58.58a8.61,8.61,0,0,1,0,.88c0,.35-.15.51-.51.51h-1c-.34,0-.49.15-.49.48,0,1,0,2,0,3a.42.42,0,0,0,.47.47h1c.36,0,.5-.15.5-.51s0-.64,0-1,.15-.48.49-.49h1c.36,0,.51.16.51.51s0,.65,0,1,.15.48.49.48h1c.34,0,.49.15.49.49s0,.61,0,.92.15.55.56.55.62,0,.93,0a.46.46,0,0,1,.5.5c0,.33,0,.66,0,1a.41.41,0,0,0,.47.47h3c.34,0,.48-.15.48-.48s0-.66,0-1-.15-.48-.48-.49-.66,0-1,0a.42.42,0,0,1-.48-.48c0-.31,0-.63,0-.94s-.14-.54-.53-.54H46a.41.41,0,0,1-.47-.47c0-.32,0-.65,0-1a.46.46,0,0,1,.53-.52c.32,0,.65,0,1,0a.42.42,0,0,0,.48-.47c0-.33,0-.67,0-1a.42.42,0,0,0-.47-.48c-.3,0-.61,0-.91,0s-.63-.11-.6-.58c0-.3,0-.6,0-.9A.42.42,0,0,0,45,25.5H44a.43.43,0,0,1-.47-.46c0-.35,0-.69,0-1a.44.44,0,0,1,.49-.47h1c.34,0,.49.16.49.5s0,.68,0,1a.4.4,0,0,0,.43.43H47a.41.41,0,0,0,.42-.37.86.86,0,0,0,0-.16c0-.95,0-1.9,0-2.84,0-.39-.14-.53-.53-.54H42.11ZM21.62,35.29h1.61c.35,0,.5-.15.5-.49s0-.66,0-1a.45.45,0,0,0-.5-.48c-.3,0-.6,0-.9,0s-.57-.12-.58-.55,0-.62,0-.92-.16-.48-.49-.49h-1c-.34,0-.49.16-.49.49s0,.64,0,1-.15.51-.5.51-.65,0-1,0-.49-.16-.5-.5v-.94c0-.37.16-.52.53-.52h1a.4.4,0,0,0,.43-.43c0-.36,0-.73,0-1.09a.42.42,0,0,0-.43-.44h-.17c-.31,0-.61,0-.91,0A.42.42,0,0,1,17.8,29v-.16c0-.28,0-.57,0-.85a.44.44,0,0,0-.5-.48H14.24a.39.39,0,0,0-.38.39c0,.39,0,.79,0,1.18a.4.4,0,0,0,.36.38h1.13a.43.43,0,0,1,.48.48v3a.42.42,0,0,1-.4.39,1.33,1.33,0,0,1-.2,0H12.35a.41.41,0,0,0-.47.47c0,1,0,2,0,3a.42.42,0,0,0,.46.46h1c.36,0,.51-.15.51-.51s0-.62,0-.94a.45.45,0,0,1,.51-.51h7.26Zm33.75-7.23a1.62,1.62,0,0,0,0-.22.37.37,0,0,0-.38-.37h-1.2a.38.38,0,0,0-.38.38,1,1,0,0,0,0,.17c0,.31,0,.63,0,.94a.41.41,0,0,1-.45.45H50c-.38,0-.53.15-.54.53v2.87c0,.37.16.52.53.52s.83,0,1.24,0c.57,0,1.15,0,1.72,0a.41.41,0,0,1,.4.2.64.64,0,0,1,.07.31c0,.33,0,.67,0,1a.4.4,0,0,0,.44.44h1.08a.42.42,0,0,0,.45-.44V28.06ZM31.65,41.68c0-.36.14-.51.5-.51h1a.43.43,0,0,0,.47-.48c0-.34,0-.67,0-1a.42.42,0,0,0-.47-.47h-1c-.35,0-.5-.16-.5-.49s0-.68,0-1a.42.42,0,0,0-.44-.46H30.11a.42.42,0,0,0-.44.44,1.09,1.09,0,0,0,0,.18c0,.92,0,1.85,0,2.78a.75.75,0,0,1-.07.33.42.42,0,0,1-.4.19h-1a.41.41,0,0,0-.47.47q0,.49,0,1c0,.35.14.49.49.49h1a.42.42,0,0,1,.45.45,1.33,1.33,0,0,1,0,.2c0,.91,0,1.83,0,2.74,0,.38.15.53.53.54h.93c.37,0,.51-.16.51-.53,0-.8,0-1.6,0-2.41S31.64,42.49,31.65,41.68ZM20.37,37.25H18.29c-.3,0-.47.15-.48.42s0,.75,0,1.12a.41.41,0,0,0,.42.42h3.14a.41.41,0,0,1,.38.34,1.93,1.93,0,0,1,0,.24c0,.94,0,1.88,0,2.82,0,.37.14.51.5.51,1,0,2,0,2.94,0a.48.48,0,0,0,.51-.52c0-1,0-1.92,0-2.89a.47.47,0,0,0-.53-.51h-1a.44.44,0,0,1-.47-.45v-.18c0-.3,0-.6,0-.89a.41.41,0,0,0-.42-.44H20.37Zm6.82,17.62c.35,0,.5-.15.5-.49,0-1.63,0-3.25,0-4.88a.44.44,0,0,0-.5-.5c-.32,0-.63,0-1,0a.47.47,0,0,0-.53.53c0,.33,0,.66,0,1a.42.42,0,0,1-.45.46H22.12a.4.4,0,0,0-.35.36,1.09,1.09,0,0,0,0,.18v2.82a1.09,1.09,0,0,0,0,.18.4.4,0,0,0,.36.36h5.06ZM39.55,8.39c0-.37-.14-.51-.52-.52h-1c-.36,0-.5.15-.51.51s0,.62,0,.92a.46.46,0,0,1-.54.53c-.31,0-.62,0-.93,0s-.51.15-.51.51v2.89c0,.37.15.52.52.52h1a.53.53,0,0,1,.22,0,.39.39,0,0,1,.26.41c0,.35,0,.7,0,1.05a.41.41,0,0,0,.4.46q.59,0,1.17,0a.4.4,0,0,0,.4-.41,1.08,1.08,0,0,0,0-.18V11.78C39.55,10.65,39.56,9.52,39.55,8.39ZM29.67,19a1.34,1.34,0,0,0,0,.2.4.4,0,0,0,.41.4h1.15a.41.41,0,0,0,.41-.41,1,1,0,0,0,0-.17V16.28a1.34,1.34,0,0,1,0-.2.42.42,0,0,1,.37-.37,1.61,1.61,0,0,1,.22,0h3a.39.39,0,0,0,.38-.38q0-.6,0-1.2a.38.38,0,0,0-.4-.37h-3c-.37,0-.52-.15-.52-.52s0-.68,0-1a.4.4,0,0,0-.38-.43h-1.2a.41.41,0,0,0-.39.38,1.61,1.61,0,0,0,0,.22c0,1.1,0,2.2,0,3.3S29.66,17.91,29.67,19ZM47.46,52.43a.41.41,0,0,1-.29.46.93.93,0,0,1-.24,0h-1a.4.4,0,0,0-.42.39c0,.39,0,.79,0,1.18a.4.4,0,0,0,.39.38H49a.4.4,0,0,0,.42-.41,1.34,1.34,0,0,0,0-.2c0-.93,0-1.87,0-2.8a.44.44,0,0,1,.5-.5h1c.35,0,.5-.15.5-.49s0-.66,0-1-.15-.49-.48-.49H48a.45.45,0,0,0-.5.5c0,.48,0,1,0,1.44S47.47,51.93,47.46,52.43ZM21.77,11.34a.4.4,0,0,0,.45.44h1a.42.42,0,0,0,.47-.48,8.42,8.42,0,0,0,0-.87c0-.45.17-.63.62-.62.95,0,1.9,0,2.85,0,.33,0,.49-.16.49-.48,0-1,0-2,0-3a.43.43,0,0,0-.49-.48h-1c-.33,0-.48.16-.48.49s0,.64,0,1-.15.51-.52.51H22.27a.57.57,0,0,0-.34.08.45.45,0,0,0-.17.39c0,.49,0,1,0,1.49S21.76,10.83,21.77,11.34Zm33.6,38.15a.43.43,0,0,0-.49-.49h-1c-.34,0-.49.16-.49.48s0,.66,0,1-.16.49-.5.49h-1a.41.41,0,0,0-.45.43c0,1,0,2,0,3.06v0a.41.41,0,0,0,.39.4H55a.4.4,0,0,0,.35-.35,1.62,1.62,0,0,0,0-.22V49.49ZM33.13,51a.43.43,0,0,0,.49-.49c0-1,0-2,0-2.95,0-.32-.15-.47-.48-.47h-1a.42.42,0,0,0-.48.48c0,.31,0,.62,0,.92s-.15.57-.56.55-.61,0-.91,0-.51.16-.51.51,0,.62,0,.94.15.51.5.51h3Zm4.93,0a.43.43,0,0,0-.48.49c0,1,0,2,0,2.95a.41.41,0,0,0,.47.47q.51,0,1,0a.42.42,0,0,0,.48-.48c0-.33,0-.66,0-1s.15-.48.49-.48h1a.43.43,0,0,0,.49-.49c0-.32,0-.65,0-1S41.37,51,41,51h-3Zm1-25.46c.35,0,.5-.16.5-.49q0-1.47,0-2.94a.42.42,0,0,0-.48-.48h-1c-.35,0-.5.15-.51.5s0,.65,0,1a.41.41,0,0,1-.47.47h-1c-.35,0-.51.15-.51.49v1c0,.36.15.51.51.51h2.94Zm10.86-3.91a.41.41,0,0,0-.47.47c0,.33,0,.67,0,1s.16.46.48.46h1c.35,0,.5.15.5.49s0,.67,0,1a.42.42,0,0,0,.44.46H53a.42.42,0,0,0,.44-.44.28.28,0,0,0,0-.09c0-1,0-1.91,0-2.87,0-.37-.14-.51-.52-.52h-3Zm-40,14.18a.42.42,0,0,0-.46-.48h-1a.42.42,0,0,0-.46.47c0,.33,0,.67,0,1a.46.46,0,0,1-.5.49h-1c-.36,0-.51.15-.51.5s0,.64,0,1,.15.5.5.5h3a.41.41,0,0,0,.46-.46c0-.5,0-1,0-1.49S9.9,36.27,9.89,35.77Zm24.25-2.44a.46.46,0,0,0-.52.5c0,.32,0,.65,0,1s.15.49.5.49h4.93c.34,0,.49-.15.49-.5s0-.63,0-.94-.14-.52-.52-.52H36.57C35.76,33.33,35,33.34,34.14,33.33ZM25.72,46.55c0,.34.15.49.5.5h1c.34,0,.5-.17.5-.5,0-1,0-2,0-2.93,0-.34-.16-.49-.5-.5s-.63,0-1,0a.47.47,0,0,0-.53.52c0,.48,0,1,0,1.44S25.71,46.06,25.72,46.55Zm-8.41-21c.34,0,.49-.15.49-.48s0-.67,0-1a.41.41,0,0,0-.47-.47h-3a.46.46,0,0,0-.48.49,8,8,0,0,1,0,1,.45.45,0,0,0,.5.5c.49,0,1,0,1.48,0Zm30.61,0a.41.41,0,0,0-.45.45q0,.53,0,1.05a.41.41,0,0,0,.46.46h3a.42.42,0,0,0,.47-.47q0-.49,0-1c0-.35-.15-.5-.51-.5H49.44C48.94,25.5,48.43,25.49,47.92,25.5Zm-26.67-2a.46.46,0,0,0,.52-.5c0-.32,0-.65,0-1s-.15-.48-.5-.48c-1,0-2,0-3,0-.34,0-.49.15-.5.49V23c0,.37.15.51.53.51h1.46C20.27,23.53,20.76,23.52,21.25,23.54Zm-11.84,0c.34,0,.48-.14.49-.48v-1c0-.34-.15-.48-.49-.48-1,0-2,0-3,0a.42.42,0,0,0-.48.48q0,.48,0,1c0,.36.14.5.5.5h3ZM22.26,47.05c-.35,0-.49.14-.49.48s0,.65,0,1,.14.49.48.49h3c.33,0,.48-.16.48-.49s0-.64,0-1-.14-.49-.49-.49h-3ZM32.12,7.88c-.32,0-.47.15-.47.46s0,.67,0,1a.41.41,0,0,0,.47.47h3a.42.42,0,0,0,.48-.46c0-.34,0-.68,0-1a.44.44,0,0,0-.5-.48h-3ZM7.47,31.37a.41.41,0,0,0,.45-.43c0-.36,0-.73,0-1.09a.4.4,0,0,0-.43-.43H6.39a.42.42,0,0,0-.44.45c0,.36,0,.71,0,1.07a.4.4,0,0,0,.44.44H7.47Zm4.4.48v0a.42.42,0,0,0-.45-.46H10.34a.42.42,0,0,0-.44.42c0,.38,0,.75,0,1.12a.4.4,0,0,0,.44.42c.37,0,.73,0,1.1,0a.4.4,0,0,0,.43-.43c0-.17,0-.35,0-.52ZM25.71,24a.41.41,0,0,0-.45-.45H24.2a.42.42,0,0,0-.46.45c0,.35,0,.71,0,1.07a.41.41,0,0,0,.44.44h1.09a.42.42,0,0,0,.44-.46c0-.17,0-.35,0-.53S25.72,24.16,25.71,24ZM11.87,24a.41.41,0,0,0-.44-.46H10.35A.41.41,0,0,0,9.9,24c0,.36,0,.72,0,1.09a.41.41,0,0,0,.43.43h1.11a.41.41,0,0,0,.43-.45c0-.17,0-.35,0-.52S11.88,24.18,11.87,24Zm1.48,7.37h.05a.41.41,0,0,0,.45-.43c0-.36,0-.73,0-1.09a.4.4,0,0,0-.43-.43c-.37,0-.75,0-1.12,0a.39.39,0,0,0-.42.42q0,.56,0,1.11a.4.4,0,0,0,.44.42h1ZM6,27a.41.41,0,0,0,.43.45H7.49A.41.41,0,0,0,7.92,27c0-.37,0-.73,0-1.09a.41.41,0,0,0-.45-.44q-.54,0-1.08,0a.4.4,0,0,0-.44.44c0,.18,0,.36,0,.54S5.94,26.83,6,27Zm33.17-7.39a.41.41,0,0,0,.43-.43c0-.36,0-.72,0-1.09a.41.41,0,0,0-.44-.44H38a.41.41,0,0,0-.44.44c0,.36,0,.72,0,1.07a.42.42,0,0,0,.45.45h1.09ZM37.57,6.9V6.35a.41.41,0,0,0-.42-.44H36a.41.41,0,0,0-.42.42q0,.57,0,1.14a.4.4,0,0,0,.41.4h1.15a.41.41,0,0,0,.41-.43c0-.18,0-.36,0-.54ZM33.18,37.25a.41.41,0,0,0,.44-.42c0-.37,0-.75,0-1.12a.39.39,0,0,0-.42-.41H32.08a.4.4,0,0,0-.43.43c0,.37,0,.73,0,1.1a.41.41,0,0,0,.45.43h1.08ZM18.26,25.5a.41.41,0,0,0-.45.43c0,.37,0,.73,0,1.1a.41.41,0,0,0,.43.43h1.1a.42.42,0,0,0,.44-.45c0-.36,0-.71,0-1.07a.41.41,0,0,0-.44-.44c-.18,0-.37,0-.55,0S18.43,25.49,18.26,25.5Zm-5.91,0a.42.42,0,0,0-.47.46q0,.52,0,1.05a.42.42,0,0,0,.45.45h1.06a.42.42,0,0,0,.46-.45c0-.36,0-.71,0-1.07a.41.41,0,0,0-.44-.44c-.19,0-.37,0-.55,0ZM53.4,38.22v.57a.4.4,0,0,0,.41.42h1.13a.4.4,0,0,0,.42-.41q0-.57,0-1.14a.39.39,0,0,0-.4-.41H53.81a.4.4,0,0,0-.41.42c0,.18,0,.37,0,.55Zm-47-4.88a.4.4,0,0,0-.44.44c0,.35,0,.71,0,1.07a.4.4,0,0,0,.42.44H7.51a.41.41,0,0,0,.41-.41q0-.57,0-1.14a.4.4,0,0,0-.43-.4H6.39ZM33.63,52.47a.42.42,0,0,0,.45.45h1.08a.41.41,0,0,0,.44-.43V51.38a.41.41,0,0,0-.42-.42H34.05a.4.4,0,0,0-.42.43c0,.19,0,.37,0,.55S33.62,52.29,33.63,52.47Zm0-33.34s0,0,0,.05a.41.41,0,0,0,.43.44h1.09a.41.41,0,0,0,.45-.43V18.1a.42.42,0,0,0-.45-.44H34.06a.41.41,0,0,0-.43.45c0,.17,0,.35,0,.52Zm-1,33.79h-.57a.41.41,0,0,0-.42.42q0,.55,0,1.11a.39.39,0,0,0,.41.42c.39,0,.77,0,1.15,0a.4.4,0,0,0,.41-.4q0-.57,0-1.14a.41.41,0,0,0-.43-.41ZM12.87,21.58h-.55c-.28,0-.44.16-.44.44s0,.72,0,1.07a.4.4,0,0,0,.44.44h1.1a.4.4,0,0,0,.43-.4q0-.57,0-1.14a.4.4,0,0,0-.43-.4c-.18,0-.36,0-.55,0Zm24.7-5.43a.4.4,0,0,0-.43-.44c-.37,0-.74,0-1.1,0a.4.4,0,0,0-.44.42c0,.37,0,.73,0,1.09a.41.41,0,0,0,.45.44h1.08a.4.4,0,0,0,.44-.46c0-.16,0-.33,0-.5S37.58,16.34,37.57,16.15ZM29.24,49a.39.39,0,0,0,.42-.41c0-.37,0-.75,0-1.12a.39.39,0,0,0-.43-.42h-1.1a.39.39,0,0,0-.43.42q0,.56,0,1.11a.39.39,0,0,0,.42.42h1.12Zm13.27-5.88c.19,0,.39,0,.58,0a.39.39,0,0,0,.41-.42q0-.56,0-1.11a.39.39,0,0,0-.41-.42H42a.39.39,0,0,0-.42.43c0,.36,0,.73,0,1.09a.4.4,0,0,0,.44.43ZM15.83,11.17v-.74c0-.48-.12-.61-.6-.61H10.31a.42.42,0,0,0-.41.41.91.91,0,0,0,0,.17v4.84a.44.44,0,0,0,.46.46h5.08a.41.41,0,0,0,.4-.39V11.17Zm29.65,3.52c0,.2,0,.4,0,.6a.39.39,0,0,0,.39.41h5.17a.41.41,0,0,0,.36-.38,1.08,1.08,0,0,0,0-.18V10.39a.75.75,0,0,0,0-.15A.41.41,0,0,0,51,9.83H45.84a.37.37,0,0,0-.31.22.9.9,0,0,0,0,.28c0,.81,0,1.62,0,2.43ZM15.32,51a.45.45,0,0,0,.51-.51V45.59a.47.47,0,0,0-.53-.51c-1.63,0-3.25,0-4.88,0a.48.48,0,0,0-.53.52c0,1.61,0,3.23,0,4.84,0,.38.15.52.54.52h4.89Z"/></g></g></svg>