<?xml version="1.0" encoding="utf-8"?>
<!-- Generator: Adobe Illustrator 24.0.2, SVG Export Plug-In . SVG Version: 6.00 Build 0)  -->
<svg version="1.1" id="Capa_1" xmlns="http://www.w3.org/2000/svg" xmlns:xlink="http://www.w3.org/1999/xlink" x="0px" y="0px"
	 viewBox="0 0 493 403" style="enable-background:new 0 0 493 403;" xml:space="preserve">
<style type="text/css">
	.st0{opacity:0.15;clip-path:url(#SVGID_2_);fill:#4F5E69;}
	.st1{clip-path:url(#SVGID_2_);}
	.st2{fill:#FFD7BA;}
	.st3{fill:#FFDAD3;}
	.st4{fill:#FFD1CA;}
	.st5{opacity:0.4;fill:#FFBB96;}
	.st6{fill:#FFECE9;}
	.st7{fill:#FFD500;}
	.st8{fill:#ECECEC;}
	.st9{fill:#4F5E69;}
	.st10{fill:#F5F5F5;}
	.st11{font-family:'Montserrat-Regular';}
	.st12{font-size:5.9879px;}
	.st13{opacity:0.2;fill:#4F5E69;}
	.st14{fill-rule:evenodd;clip-rule:evenodd;fill:#FFFFFF;}
	.st15{fill-rule:evenodd;clip-rule:evenodd;fill:#4F5E69;}
	.st16{fill:url(#SVGID_3_);}
	.st17{fill:#FFFFFF;}
	.st18{opacity:0.3;fill:#FFFFFF;}
	.st19{opacity:0.3;}
	.st20{opacity:0.4;clip-path:url(#SVGID_2_);fill:#FFBB96;}
	.st21{clip-path:url(#SVGID_2_);fill:#4F5E69;}
	.st22{fill-rule:evenodd;clip-rule:evenodd;fill:#FFD500;}
	.st23{font-size:7.5723px;}
	.st24{opacity:0.4;fill:#FFFFFF;}
</style>
<g>
	<g>
		<defs>
			<polygon id="SVGID_1_" points="492.3,403 0.1,403 24,-61 492.3,-61 			"/>
		</defs>
		<clipPath id="SVGID_2_">
			<use xlink:href="#SVGID_1_"  style="overflow:visible;"/>
		</clipPath>
		<polygon class="st0" points="458.6,71.8 280.8,253.9 517.4,494.4 607.6,224.1 		"/>
		<polygon class="st0" points="406.4,37 333.2,52.4 442.7,163.6 460.8,91.5 		"/>
		<g class="st1">
			<g>
				<g>
					<g>
						<path class="st2" d="M-39.7,501.5c26.4-47,60.5-80.5,79-157.7c29.1,15.1,55.5,27.7,84.5,43.2c-5.1,8.6-11.1,32.3-13.4,43.7
							c-4.3,21-11.7,41.5-17.1,62.3c-15.6,60.6-27,122.8-53.2,180.1c-19.1,41.9-56.5,69.7-105.2,66.1c-14.6-1.1-28.4-6.7-36.9-20.1
							c-13.7-21.4-3.4-51.6,1.9-72.3c9.5-37.5,22.7-72.3,39.7-106.5C-53.8,527.1-46.9,514.2-39.7,501.5z"/>
					</g>
					<g>
						<g>
							<path class="st2" d="M202.4,272.2c0,0,2.5,38.5-3.2,46.4c-5.7,8-21.8,2.3-23.8-10.3c-2-12.6-1.4-25.1-1.4-25.1
								s-16.2-2.9-22.1-18.1c-5.9-15.2-8.2-31.3-8.2-31.3l29.7-8.4"/>
							<path class="st3" d="M198.4,227.3c0,0,21,27.3,21,43.8c0,16.6-21.5,4.5-29.4-7.8c-7.9-12.3-20.4-27.6-20.4-27.6"/>
							<path class="st2" d="M179.8,278.9c0,0,2.8,35.5-2.7,46.4c-2.4,4.7-7.1,4.3-10.1,0.8c-7.4-8.6-7.4-20.7-9.2-31.3
								c-1.2-7-3.1-13.8-5.1-20.5c-0.5-1.7-1-3.4-1.4-5.1"/>
							<path class="st2" d="M106.7,415.6c0,0,40.8-47.8,54.3-78.6c13.5-30.8,16.2-44.1,16.2-44.1l-15.1-57.8l7.5-61.6l17.3,12.7
								c-13.9-39.1-85.9-50.6-92.1-43.2c-6.3,7.4-40.3,54.6-53.8,70.2c-13.5,15.6-7,44.6-5.7,78.3c1.2,33.7,2.1,79.9,2.1,79.9"/>
						</g>
						<path class="st4" d="M160.4,311.7c0,0-0.9-42.1-6.5-58.5l22.1,22.2C176,275.5,158.5,271.7,160.4,311.7z"/>
						<path class="st5" d="M103.1,212c1.5,16.7,0.6,27.1,0.6,27.1l12.5-55.3l1.4-41.7c0,0-0.1-0.1-0.3-0.2
							c-7.9-1.3-14.6-1.5-18.6-0.7l0,0c-0.7,0.1-1.4,0.3-1.9,0.5c0,0,0,0,0,0c-0.2,0.1-0.5,0.2-0.7,0.3c-0.1,0-0.1,0.1-0.2,0.1
							c-0.2,0.1-0.3,0.2-0.4,0.3c0,0-0.1,0.1-0.1,0.1c-0.2,0.1-0.3,0.2-0.4,0.4c-1.9,2.2-6.1,7.8-11.6,15.1
							C92.1,170.9,102.1,202.1,103.1,212z"/>
						<path class="st6" d="M202.9,292.8c0,0-8.4,0.2-9.5,8c-1.1,7.8,4.3,14.4,7.4,16.1C203.8,318.6,202.9,292.8,202.9,292.8z"/>
					</g>
				</g>
				<g>
					<g>
						<g>
							<path class="st7" d="M260.9,40.2c0-1.8-0.2-3.6-0.5-5.3H102.6c-0.3,1.7-0.5,3.5-0.5,5.3V282c0,0.3,0,0.6,0,0.9h158.7
								c0-0.3,0-0.6,0-0.9V40.2z"/>
							<path class="st8" d="M260.9,35.5c0-0.2-0.2-0.4-0.5-0.6H102.6c-0.3,0.2-0.5,0.4-0.5,0.6v26.6c0,0,0,0.1,0,0.1h158.7
								c0,0,0-0.1,0-0.1V35.5z"/>
							<path class="st9" d="M128.3,45.8C128.3,45.8,128.3,45.8,128.3,45.8l-11.8,0c0,0,0,0,0,0v-2.5c0,0,0,0,0-0.1h11.7
								c0,0,0,0,0,0.1V45.8z M128.3,47.3C128.3,47.3,128.3,47.3,128.3,47.3l-11.8-0.1c0,0,0,0,0,0.1v2.5c0,0,0,0,0,0h11.8
								c0,0,0,0,0,0V47.3z M128.3,51.4C128.3,51.4,128.3,51.3,128.3,51.4l-11.8-0.1c0,0,0,0,0,0.1v2.5c0,0,0,0,0,0h11.8c0,0,0,0,0,0
								V51.4z"/>
							<path class="st8" d="M260.9,246.8c0-0.3-0.2-0.5-0.5-0.8H102.6c-0.3,0.3-0.5,0.5-0.5,0.8v36c0,0,0,0.1,0,0.1h158.7
								c0,0,0-0.1,0-0.1V246.8z"/>
							<path class="st9" d="M260.4,34.9c-0.6-3.6-1.9-7-3.7-10c0,0,0,0,0,0c-0.4-0.7-0.9-1.5-1.4-2.2c0,0,0,0,0,0
								c-1.5-2.1-3.3-4-5.3-5.7c0,0-0.1-0.1-0.1-0.1c-0.6-0.5-1.3-1-1.9-1.5c-0.1-0.1-0.1-0.1-0.2-0.2c-0.7-0.5-1.3-0.9-2-1.3
								c-0.1,0-0.1-0.1-0.2-0.1c-0.7-0.4-1.5-0.8-2.2-1.2c0,0,0,0-0.1,0c-0.8-0.4-1.5-0.7-2.3-1c-0.1,0-0.1,0-0.2-0.1
								c-0.8-0.3-1.5-0.5-2.3-0.7c-0.1,0-0.2-0.1-0.4-0.1c-0.8-0.2-1.5-0.4-2.3-0.5c-0.1,0-0.3,0-0.4-0.1c-0.8-0.1-1.6-0.3-2.4-0.3
								c-0.1,0-0.2,0-0.3,0c-0.9-0.1-1.7-0.1-2.6-0.1H133c-0.9,0-1.7,0-2.6,0.1c-0.1,0-0.2,0-0.3,0c-0.8,0.1-1.6,0.2-2.4,0.3
								c-0.1,0-0.3,0-0.4,0.1c-0.8,0.1-1.6,0.3-2.3,0.5c-0.1,0-0.2,0.1-0.4,0.1c-0.8,0.2-1.6,0.5-2.3,0.7c-0.1,0-0.1,0-0.2,0.1
								c-0.8,0.3-1.6,0.6-2.3,1c0,0,0,0-0.1,0c-0.8,0.4-1.5,0.8-2.2,1.2c-0.1,0-0.1,0.1-0.2,0.1c-0.7,0.4-1.4,0.8-2,1.3
								c-0.1,0.1-0.1,0.1-0.2,0.2c-0.7,0.5-1.3,1-1.9,1.5c0,0-0.1,0.1-0.1,0.1c-2,1.7-3.8,3.6-5.3,5.7c0,0,0,0,0,0
								c-0.5,0.7-1,1.4-1.4,2.2c0,0,0,0,0,0c-1.8,3-3,6.4-3.7,10l0,0H260.4L260.4,34.9z"/>
							<path class="st9" d="M102.1,282.9c0,0.5,0,1,0.1,1.5c0,0,0,0,0,0c0,0.5,0.1,1,0.2,1.5c0,0,0,0,0,0c0.1,0.5,0.1,1,0.2,1.5
								c0,0,0,0,0,0c0.1,0.5,0.2,1,0.3,1.5c0,0,0,0,0,0c0.1,0.5,0.2,1,0.4,1.4c0,0,0,0,0,0c0.1,0.5,0.3,0.9,0.4,1.4c0,0,0,0,0,0
								c0.2,0.5,0.3,0.9,0.5,1.3c0,0,0,0,0,0c0.2,0.4,0.4,0.9,0.5,1.3c0,0,0,0,0,0.1c0.2,0.4,0.4,0.8,0.6,1.2c0,0,0,0.1,0,0.1
								c0.2,0.4,0.4,0.8,0.6,1.2c0,0,0,0.1,0.1,0.1c0.2,0.4,0.4,0.8,0.7,1.1c0,0,0.1,0.1,0.1,0.1c0.2,0.4,0.5,0.7,0.7,1.1
								c0,0,0.1,0.1,0.1,0.2c0.2,0.3,0.5,0.7,0.8,1c0,0.1,0.1,0.1,0.1,0.2c0.3,0.3,0.5,0.6,0.8,0.9c0.1,0.1,0.1,0.1,0.2,0.2
								c0.3,0.3,0.5,0.6,0.8,0.9c0.1,0.1,0.1,0.1,0.2,0.2c0.3,0.3,0.5,0.5,0.8,0.8c0.1,0.1,0.2,0.2,0.2,0.2c0.3,0.3,0.5,0.5,0.8,0.8
								c0.1,0.1,0.2,0.2,0.3,0.2c0.3,0.2,0.5,0.5,0.8,0.7c0.1,0.1,0.2,0.2,0.3,0.3c0.3,0.2,0.5,0.4,0.8,0.6c0.1,0.1,0.2,0.2,0.4,0.3
								c0.3,0.2,0.5,0.4,0.8,0.6c0.1,0.1,0.3,0.2,0.4,0.3c0.3,0.2,0.5,0.3,0.8,0.5c0.2,0.1,0.3,0.2,0.5,0.3c0.3,0.2,0.5,0.3,0.8,0.4
								c0.2,0.1,0.3,0.2,0.5,0.3c0.3,0.1,0.5,0.3,0.8,0.4c0.2,0.1,0.4,0.2,0.6,0.3c0.3,0.1,0.5,0.2,0.8,0.3c0.2,0.1,0.4,0.2,0.6,0.2
								c0.3,0.1,0.5,0.2,0.8,0.3c0.2,0.1,0.4,0.1,0.7,0.2c0.3,0.1,0.5,0.2,0.8,0.3c0.2,0.1,0.5,0.1,0.7,0.2c0.2,0.1,0.5,0.1,0.7,0.2
								c0.3,0.1,0.5,0.1,0.8,0.2c0.2,0.1,0.5,0.1,0.7,0.2c0.3,0.1,0.6,0.1,0.8,0.1c0.2,0,0.4,0.1,0.7,0.1c0.3,0,0.6,0.1,0.9,0.1
								c0.2,0,0.4,0.1,0.6,0.1c0.3,0,0.7,0.1,1,0.1c0.2,0,0.4,0,0.5,0c0.5,0,1,0,1.6,0h96.9c0.5,0,1.1,0,1.6,0c0.2,0,0.4,0,0.5,0
								c0.3,0,0.7,0,1-0.1c0.2,0,0.4-0.1,0.6-0.1c0.3,0,0.6-0.1,0.9-0.1c0.2,0,0.5-0.1,0.7-0.1c0.3,0,0.6-0.1,0.8-0.1
								c0.2,0,0.5-0.1,0.7-0.2c0.3-0.1,0.5-0.1,0.8-0.2c0.2-0.1,0.5-0.1,0.7-0.2c0.2-0.1,0.5-0.1,0.7-0.2c0.3-0.1,0.5-0.2,0.8-0.3
								c0.2-0.1,0.4-0.1,0.7-0.2c0.3-0.1,0.5-0.2,0.8-0.3c0.2-0.1,0.4-0.2,0.6-0.2c0.3-0.1,0.5-0.2,0.8-0.3c0.2-0.1,0.4-0.2,0.6-0.3
								c0.3-0.1,0.5-0.3,0.8-0.4c0.2-0.1,0.3-0.2,0.5-0.3c0.3-0.1,0.5-0.3,0.8-0.4c0.2-0.1,0.3-0.2,0.5-0.3c0.3-0.2,0.5-0.3,0.8-0.5
								c0.1-0.1,0.3-0.2,0.4-0.3c0.3-0.2,0.5-0.4,0.8-0.6c0.1-0.1,0.3-0.2,0.4-0.3c0.3-0.2,0.6-0.4,0.8-0.6c0.1-0.1,0.2-0.2,0.3-0.3
								c0.3-0.2,0.6-0.5,0.8-0.7c0.1-0.1,0.2-0.2,0.3-0.2c0.3-0.2,0.6-0.5,0.8-0.8c0.1-0.1,0.2-0.2,0.2-0.2c0.3-0.3,0.5-0.5,0.8-0.8
								c0.1-0.1,0.1-0.1,0.2-0.2c0.3-0.3,0.5-0.6,0.8-0.9c0.1-0.1,0.1-0.1,0.2-0.2c0.3-0.3,0.5-0.6,0.8-0.9c0-0.1,0.1-0.1,0.1-0.2
								c0.3-0.3,0.5-0.7,0.8-1c0-0.1,0.1-0.1,0.1-0.2c0.2-0.4,0.5-0.7,0.7-1.1c0,0,0.1-0.1,0.1-0.1c0.2-0.4,0.5-0.7,0.7-1.1
								c0,0,0-0.1,0.1-0.1c0.2-0.4,0.4-0.8,0.6-1.2c0,0,0-0.1,0-0.1c0.2-0.4,0.4-0.8,0.6-1.2c0,0,0,0,0-0.1c0.2-0.4,0.4-0.9,0.5-1.3
								c0,0,0,0,0,0c0.2-0.4,0.3-0.9,0.5-1.3c0,0,0,0,0,0c0.2-0.5,0.3-0.9,0.4-1.4c0,0,0,0,0,0c0.1-0.5,0.3-0.9,0.4-1.4c0,0,0,0,0,0
								c0.1-0.5,0.2-1,0.3-1.5c0,0,0,0,0,0c0.1-0.5,0.2-1,0.2-1.5c0,0,0,0,0,0c0.1-0.5,0.1-1,0.2-1.5c0,0,0,0,0,0
								c0-0.5,0.1-1,0.1-1.5c0,0,0,0,0,0L102.1,282.9C102.1,282.8,102.1,282.9,102.1,282.9z"/>
						</g>
						<path class="st7" d="M207,296.8c0,3.7-3,6.7-6.7,6.7h-37.7c-3.7,0-6.7-3-6.7-6.7l0,0c0-3.7,3-6.7,6.7-6.7h37.7
							C204,290.2,207,293.2,207,296.8L207,296.8z"/>
						<path class="st7" d="M179.8,22.1c0,0.9-0.8,1.7-1.7,1.7h-9.4c-0.9,0-1.7-0.7-1.7-1.7l0,0c0-0.9,0.8-1.7,1.7-1.7h9.4
							C179.1,20.5,179.8,21.2,179.8,22.1L179.8,22.1z M195.9,22.1c0-0.9-0.8-1.7-1.7-1.7h-9.4c-0.9,0-1.7,0.7-1.7,1.7l0,0
							c0,0.9,0.8,1.7,1.7,1.7h9.4C195.1,23.8,195.9,23,195.9,22.1L195.9,22.1z"/>
					</g>
					<g>
						<path class="st9" d="M208.5,264.2c0,5.3-4.3,9.6-9.6,9.6h-36.1c-5.3,0-9.6-4.3-9.6-9.6l0,0c0-5.3,4.3-9.6,9.6-9.6h36.1
							C204.2,254.6,208.5,258.9,208.5,264.2L208.5,264.2z"/>
						<path class="st10" d="M181.6,257.6h-18.5c-3.5,0-6.4,2.8-6.4,6.3c0,3.5,2.9,6.3,6.4,6.3h18.5c3.5,0,6.4-2.8,6.4-6.3
							C188,260.4,185.1,257.6,181.6,257.6z"/>
						<ellipse class="st7" cx="181.9" cy="263.9" rx="6.4" ry="6.3"/>
					</g>
					<g>
						<path class="st9" d="M240.1,262.1h-2.6v-2.6c0-1-0.9-1.9-1.9-1.9c-1.1,0-1.9,0.8-1.9,1.9v2.6h-2.6c-1.1,0-1.9,0.8-1.9,1.9
							c0,1,0.9,1.9,1.9,1.9h2.6v2.6c0,1,0.9,1.9,1.9,1.9c1.1,0,1.9-0.8,1.9-1.9v-2.6h2.6c1.1,0,1.9-0.8,1.9-1.9
							C242,262.9,241.2,262.1,240.1,262.1z"/>
					</g>
					<g>
						<g>
							<path class="st9" d="M221.2,50.2c-0.5,0-0.9-0.4-0.9-0.9c0-3.2,2.6-5.8,5.9-5.8c0.5,0,0.9,0.4,0.9,0.9c0,0.5-0.4,0.9-0.9,0.9
								c-2.3,0-4.1,1.8-4.1,4.1C222,49.8,221.6,50.2,221.2,50.2z"/>
						</g>
						<g>
							<path class="st9" d="M226.2,53.9c-0.5,0-0.9-0.4-0.9-0.9c0-0.5,0.4-0.9,0.9-0.9c2.3,0,4.1-1.8,4.1-4.1c0-0.5,0.4-0.9,0.9-0.9
								c0.5,0,0.9,0.4,0.9,0.9C232.1,51.3,229.5,53.9,226.2,53.9z"/>
						</g>
						<g>
							<path class="st9" d="M224.9,47.3c-0.2,0-0.4-0.1-0.6-0.3c-0.3-0.3-0.3-0.9,0-1.2l1.4-1.4l-1.4-1.4c-0.3-0.3-0.3-0.9,0-1.2
								c0.3-0.3,0.9-0.3,1.2,0l2.1,2c0.3,0.3,0.3,0.9,0,1.2l-2.1,2C225.4,47.2,225.1,47.3,224.9,47.3z"/>
						</g>
						<g>
							<path class="st9" d="M227,56c-0.2,0-0.4-0.1-0.6-0.3l-2.1-2c-0.3-0.3-0.3-0.9,0-1.2l2.1-2c0.3-0.3,0.9-0.3,1.2,0
								c0.3,0.3,0.3,0.9,0,1.2l-1.4,1.4l1.4,1.4c0.3,0.3,0.3,0.9,0,1.2C227.5,55.9,227.3,56,227,56z"/>
						</g>
					</g>
					<g>
						<path class="st9" d="M239.6,46.9c0-2.6,1.6-4.1,4.1-4.1c2.4,0,3.9,1.1,3.9,3.1c0,2.7-2.8,3.1-2.8,5.2h-2.3
							c0-2.8,2.2-2.9,2.2-4.7c0-0.8-0.5-1.2-1.3-1.2c-0.9,0-1.4,0.5-1.4,1.6L239.6,46.9z M245.1,54.1c0,0.9-0.6,1.5-1.5,1.5
							c-0.9,0-1.5-0.6-1.5-1.5c0-0.9,0.6-1.5,1.5-1.5C244.5,52.6,245.1,53.2,245.1,54.1z"/>
					</g>
					<text transform="matrix(1.0094 0 0 1 146.5112 219.5684)" class="st9 st11 st12">Scan your QR code</text>
					<rect x="130.1" y="100.7" class="st13" width="102.5" height="101.3"/>
					<g>
						<path class="st14" d="M180.7,195c-14.1,0-28.2,0-42.3,0c-0.3,0-0.5,0-0.8-0.1c-1.2-0.3-2-1.3-2-2.5c0-0.1,0-0.2,0-0.3
							c0-27.9,0-55.8,0-83.6c0-0.3,0-0.6,0.1-1c0.3-1.1,1.3-1.9,2.4-1.9c0.1,0,0.2,0,0.3,0c28.2,0,56.3,0,84.5,0
							c0.3,0,0.6,0,0.9,0.1c1.1,0.3,1.9,1.2,2,2.4c0,0.1,0,0.3,0,0.4c0,27.9,0,55.7,0,83.6c0,0.3,0,0.6-0.1,0.9
							c-0.3,1.1-1.3,1.9-2.4,1.9c-0.2,0-0.3,0-0.5,0C208.8,195,194.8,195,180.7,195z"/>
						<path class="st15" d="M214.1,166.1c0.7,0,1.4,0,2.1,0c0.5,0,0.8,0.2,0.8,0.7c0,1.4,0,2.9,0,4.3c0,0.5-0.2,0.7-0.8,0.7
							c-0.5,0-0.9,0-1.4,0c-0.5,0-0.7,0.2-0.7,0.7c0,0.5,0,0.9,0,1.4c0,0.5-0.2,0.7-0.8,0.7c-1.4,0-2.9,0-4.3,0
							c-0.5,0-0.8-0.2-0.8-0.8c0-0.5,0-0.9,0-1.4c0-0.5-0.2-0.7-0.7-0.7c-0.5,0-1,0-1.4,0c-0.5,0-0.7,0.2-0.7,0.7c0,1.4,0,2.7,0,4.1
							c0,0.1,0,0.2,0,0.3c0,0.4-0.2,0.7-0.7,0.7c-0.5,0-0.9,0-1.4,0c-0.5,0-0.9,0.2-0.8,0.8c0,0.4,0,0.9,0,1.4
							c0,0.5-0.2,0.7-0.7,0.7c-0.4,0-0.8,0-1.2,0c-0.8,0-0.9-0.2-0.9-0.9c0-1.3,0-2.6,0-4c0-0.1,0-0.2,0-0.3c0-0.3-0.2-0.6-0.6-0.6
							c-0.6,0-1.1,0-1.7,0c-0.4,0-0.6,0.2-0.6,0.6c0,0.5,0,1,0,1.4c0,0.1,0,0.2,0,0.3c-0.1,0.2-0.2,0.4-0.5,0.4c-0.1,0-0.2,0-0.3,0
							c-1.4,0-2.7,0-4.1,0c-0.1,0-0.2,0-0.3,0c-0.4,0-0.6,0.3-0.6,0.7c0,0.4,0,0.9,0,1.3c0,0.1,0,0.2,0,0.3c0,0.4-0.2,0.6-0.6,0.6
							c-0.6,0-1.1,0-1.7,0c-0.4,0-0.6-0.2-0.6-0.6c0-0.1,0-0.2,0-0.3c0-1.3,0-2.6,0-4c0-0.1,0-0.2,0-0.3c0-0.4-0.2-0.7-0.7-0.7
							c-0.5,0-1,0-1.5,0c-0.5,0-0.8-0.2-0.8-0.8c0-0.5,0-0.9,0-1.4c0-0.5,0.2-0.7,0.8-0.7c1.4,0,2.8,0,4.2,0c0.1,0,0.2,0,0.3,0
							c0.4,0,0.6-0.2,0.6-0.6c0-0.5,0-1,0-1.6c0-0.4-0.2-0.7-0.7-0.7c-0.4,0-0.8,0-1.2,0c-0.1,0-0.3,0-0.4,0c-0.4,0-0.6-0.2-0.6-0.6
							c0-0.5,0-1.1,0-1.6c0-0.4,0.2-0.6,0.7-0.6c0.5,0,1,0,1.5,0c0.5,0,0.7-0.2,0.7-0.7c0-0.1,0-0.2,0-0.3c0-1.3,0-2.6,0-3.9
							c0-0.1,0-0.2,0-0.3c0-0.4,0.2-0.6,0.6-0.6c0.1,0,0.2,0,0.3,0c1.4,0,2.8,0,4.2,0c0.5,0,0.8-0.3,0.8-0.8c0-1.4,0-2.7,0-4.1
							c0-0.1,0-0.2,0-0.3c0-0.3,0.2-0.5,0.6-0.6c0.6,0,1.1,0,1.7,0c0.4,0,0.6,0.2,0.6,0.6c0,0.5,0,0.9,0,1.4c0,0.1,0,0.2,0,0.3
							c0,0.4,0.3,0.6,0.6,0.6c0.4,0,0.9,0,1.3,0c0.1,0,0.2,0,0.3,0c0.4,0,0.6,0.3,0.6,0.6c0,0.4,0,0.9,0,1.3c0,0.1,0,0.2,0,0.3
							c0,0.5,0.2,0.7,0.7,0.7c0.5,0,1,0,1.4,0c0.6,0,0.8,0.2,0.8,0.8c0,1.4,0,2.7,0,4.1c0,0.1,0,0.2,0,0.3c0,0.4,0.2,0.7,0.7,0.7
							c0.4,0,0.8,0,1.3,0c0.1,0,0.2,0,0.3,0c0.4,0,0.6,0.2,0.6,0.6c0,0.5,0,0.9,0,1.4c0,0.1,0,0.2,0,0.3c0,0.3,0.3,0.6,0.6,0.6
							c0.6,0,1.1,0,1.7,0c0.4,0,0.6-0.2,0.6-0.6c0-0.4,0-0.8,0-1.2c0-0.1,0-0.2,0-0.4c0-0.4,0.2-0.7,0.7-0.7
							C212.6,166.1,213.4,166.1,214.1,166.1L214.1,166.1z M193.8,167.6c0,1.2,0,2.3,0,3.5c0,0.1,0,0.2,0,0.3c0,0.3,0.2,0.5,0.6,0.6
							c0.1,0,0.2,0,0.2,0c2.4,0,4.8,0,7.1,0c0.1,0,0.1,0,0.2,0c0.3,0,0.6-0.3,0.6-0.6c0-0.1,0-0.2,0-0.3c0-2.3,0-4.6,0-7
							c0-0.1,0-0.2,0-0.3c0-0.3-0.3-0.6-0.6-0.6c-0.1,0-0.2,0-0.2,0c-2.4,0-4.7,0-7.1,0c-0.1,0-0.2,0-0.3,0c-0.3,0-0.5,0.3-0.5,0.5
							c0,0.1,0,0.2,0,0.3C193.8,165.3,193.8,166.4,193.8,167.6z M179.2,149.8c0-0.7,0.3-0.9,0.9-0.9c2.4,0,4.7,0,7.1,0
							c0.5,0,0.7-0.2,0.8-0.7c0-0.5,0-0.9,0-1.4c0-0.5-0.3-0.8-0.8-0.7c-1.3,0-2.6,0-4,0c-0.1,0-0.3,0-0.4,0c-0.4,0-0.7-0.3-0.7-0.7
							c0-0.5,0-1,0-1.5c0-0.4,0.2-0.7,0.7-0.7c0.1,0,0.2,0,0.4,0c0.4,0,0.8,0,1.2,0c0.4,0,0.6-0.2,0.7-0.6c0-0.1,0-0.1,0-0.2
							c0-1.4,0-2.7,0-4.1c0-0.1,0-0.2,0-0.3c-0.1-0.3-0.3-0.5-0.6-0.5c-0.1,0-0.2,0-0.3,0c-1.4,0-2.7,0-4.1,0c-0.1,0-0.2,0-0.3,0
							c-0.3,0-0.5-0.2-0.5-0.6c0-0.1,0-0.2,0-0.3c0-0.5,0-0.9,0-1.4c0-0.4-0.2-0.6-0.6-0.6c-0.1,0-0.2,0-0.3,0c-0.4,0-0.9,0-1.3,0
							c-0.4,0-0.6-0.2-0.6-0.6c0-0.1,0-0.2,0-0.3c0-2.3,0-4.5,0-6.8c0-0.7-0.2-0.9-0.9-0.9c-0.4,0-0.9,0-1.3,0
							c-0.5,0-0.7-0.2-0.7-0.7c0-0.5,0-0.9,0-1.4c0-0.5-0.2-0.7-0.7-0.8c-0.5,0-0.9,0-1.4,0c-0.5,0-0.8,0.2-0.8,0.8c0,0.5,0,1,0,1.4
							c0,0.4-0.2,0.6-0.7,0.7c-0.1,0-0.2,0-0.3,0c-0.4,0-0.9,0-1.3,0c-0.4,0-0.7,0.2-0.7,0.7c0,0.1,0,0.1,0,0.2c0,3.3,0,6.5,0,9.8
							c0,0.1,0,0.2,0,0.3c0,0.4,0.2,0.6,0.6,0.6c0.6,0,1.1,0,1.7,0c0.4,0,0.6-0.3,0.6-0.6c0-0.1,0-0.2,0-0.3c0-2.3,0-4.6,0-6.9
							c0-0.1,0-0.2,0-0.3c0-0.3,0.3-0.5,0.6-0.5c0.6,0,1.2,0,1.8,0c0.3,0,0.5,0.3,0.6,0.6c0,0.1,0,0.2,0,0.3c0,2.3,0,4.6,0,6.9
							c0,0.1,0,0.2,0,0.3c0,0.3,0.2,0.5,0.5,0.6c0.1,0,0.2,0,0.3,0c0.5,0,1,0,1.4,0c0.4,0,0.6,0.2,0.7,0.6c0,0.1,0,0.2,0,0.2
							c0,2.3,0,4.6,0,6.9c0,0.1,0,0.2,0,0.2c0,0.4-0.3,0.6-0.7,0.6c-0.1,0-0.2,0-0.3,0c-3.2,0-6.5,0-9.7,0c-0.1,0-0.2,0-0.3,0
							c-0.4,0-0.6,0.2-0.6,0.6c0,0.6,0,1.1,0,1.7c0,0.3,0.2,0.6,0.6,0.6c0.1,0,0.2,0,0.3,0c1.6,0,3.1,0,4.7,0c0.8,0,1.6,0,2.4,0
							c0.6,0,0.8,0.2,0.8,0.8c0,0.5,0,0.9,0,1.4c0,0.5,0.2,0.7,0.7,0.7c0.5,0,1,0,1.5,0c0.5,0,0.7,0.2,0.7,0.7c0,0.5,0,0.9,0,1.4
							c0,0.5-0.2,0.8-0.8,0.8c-0.5,0-1,0-1.5,0c-0.4,0-0.7,0.2-0.7,0.7c0,1.5,0,3,0,4.4c0,0.4,0.2,0.6,0.6,0.7c0,0,0.1,0,0.1,0
							c1.4,0,2.9,0,4.3,0c0.1,0,0.1,0,0.2,0c0.3,0,0.5-0.2,0.5-0.5c0-0.1,0-0.2,0-0.3c0-1.6,0-3.2,0-4.9
							C179.2,153,179.2,151.4,179.2,149.8z M164.7,124.4c0,3.1,0,6.1,0,9.2c0,0.1,0,0.2,0,0.3c0,0.3-0.3,0.5-0.6,0.6
							c-0.1,0-0.2,0-0.2,0c-6.2,0-12.5,0-18.7,0c-0.1,0-0.2,0-0.2,0c-0.4,0-0.6-0.2-0.6-0.6c0-0.1,0-0.1,0-0.2c0-6.2,0-12.3,0-18.5
							c0-0.1,0-0.2,0-0.3c0-0.3,0.3-0.5,0.6-0.6c0.1,0,0.2,0,0.3,0c6.2,0,12.4,0,18.7,0c0.1,0,0.2,0,0.3,0c0.3,0,0.5,0.2,0.6,0.5
							c0,0.1,0,0.2,0,0.3C164.7,118.3,164.7,121.3,164.7,124.4z M147.3,124.4c0,2.2,0,4.4,0,6.6c0,0.5,0.1,0.6,0.6,0.6
							c0,0,0,0,0.1,0c4.4,0,8.8,0,13.3,0c0.1,0,0.2,0,0.3,0c0.2,0,0.3-0.1,0.4-0.4c0-0.1,0-0.2,0-0.2c0-4.4,0-8.8,0-13.2
							c0-0.1,0-0.2,0-0.3c0-0.2-0.1-0.3-0.3-0.3c-0.1,0-0.2,0-0.3,0c-4.4,0-8.9,0-13.3,0c-0.1,0-0.2,0-0.3,0c-0.2,0-0.3,0.1-0.3,0.3
							c0,0.1,0,0.2,0,0.3C147.3,120,147.3,122.2,147.3,124.4z M206.8,134.5c-3.1,0-6.2,0-9.3,0c-0.1,0-0.2,0-0.3,0
							c-0.3,0-0.5-0.2-0.6-0.6c0-0.1,0-0.2,0-0.3c0-6.1,0-12.3,0-18.4c0-0.1,0-0.2,0-0.2c0-0.4,0.2-0.6,0.6-0.6c0.1,0,0.2,0,0.3,0
							c6.2,0,12.4,0,18.6,0c0,0,0.1,0,0.1,0c0.5-0.1,0.8,0.2,0.8,0.8c0,6.2,0,12.4,0,18.6c0,0.1,0,0.1,0,0.2c0,0.4-0.2,0.6-0.6,0.6
							c-0.3,0-0.5,0-0.8,0C212.7,134.5,209.7,134.5,206.8,134.5z M199.6,124.4c0,2.2,0,4.5,0,6.7c0,0.4,0.1,0.5,0.5,0.5
							c4.5,0,9,0,13.5,0c0.4,0,0.5-0.1,0.5-0.5c0,0,0-0.1,0-0.1c0-4.4,0-8.8,0-13.1c0-0.6-0.1-0.6-0.6-0.6c-4.4,0-8.8,0-13.3,0
							c-0.1,0-0.2,0-0.2,0c-0.3,0-0.4,0.1-0.4,0.4c0,0.1,0,0.2,0,0.3C199.6,120,199.6,122.2,199.6,124.4z M154.6,166.1
							c3.1,0,6.2,0,9.2,0c0.1,0,0.2,0,0.3,0c0.3,0,0.6,0.2,0.6,0.6c0,0.1,0,0.2,0,0.3c0,6.2,0,12.3,0,18.4c0,0.1,0,0.2,0,0.2
							c0,0.4-0.2,0.6-0.6,0.6c-0.1,0-0.2,0-0.3,0c-6.2,0-12.3,0-18.5,0c-0.1,0-0.2,0-0.4,0c-0.3,0-0.5-0.2-0.6-0.6
							c0-0.1,0-0.2,0-0.3c0-6.2,0-12.3,0-18.5c0-0.1,0-0.2,0-0.3c0-0.3,0.3-0.5,0.6-0.5c0.1,0,0.2,0,0.3,0
							C148.4,166.1,151.5,166.1,154.6,166.1z M147.3,176.2c0,2.2,0,4.5,0,6.7c0,0.4,0.1,0.5,0.5,0.5c0,0,0.1,0,0.1,0
							c4.4,0,8.8,0,13.3,0c0.6,0,0.6-0.1,0.6-0.6c0-4.4,0-8.8,0-13.1c0-0.1,0-0.2,0-0.3c0-0.2-0.1-0.3-0.4-0.4c-0.1,0-0.2,0-0.3,0
							c-4.4,0-8.8,0-13.3,0c-0.1,0-0.2,0-0.3,0c-0.2,0-0.3,0.1-0.4,0.4c0,0.1,0,0.2,0,0.3C147.3,171.9,147.3,174,147.3,176.2z
							 M197.5,137.4c-0.1,0-0.2,0-0.3,0c-0.3,0-0.5,0.2-0.5,0.5c0,0.1,0,0.2,0,0.4c0,1.4,0,2.8,0,4.2c0,0.5-0.2,0.7-0.7,0.7
							c-0.4,0-0.9,0-1.3,0c-0.5,0-0.9,0.2-0.8,0.9c0,0.4,0,0.9,0,1.3c0,0.5-0.2,0.7-0.8,0.7c-0.5,0-1,0-1.4,0
							c-0.5,0-0.7,0.2-0.7,0.7c0,1.4,0,2.9,0,4.3c0,0.5,0.2,0.7,0.7,0.7c0.5,0,1,0,1.5,0c0.5,0,0.7-0.2,0.7-0.8c0-0.5,0-0.9,0-1.4
							c0-0.5,0.2-0.7,0.7-0.7c0.5,0,1,0,1.4,0c0.5,0,0.7,0.2,0.8,0.8c0,0.5,0,0.9,0,1.4c0,0.5,0.2,0.7,0.7,0.7c0.5,0,1,0,1.5,0
							c0.5,0,0.7,0.2,0.7,0.7c0,0.5,0,0.9,0,1.4c0,0.6,0.2,0.8,0.8,0.8c0.5,0,0.9,0,1.4,0c0.5,0,0.8,0.3,0.7,0.7c0,0.5,0,1,0,1.4
							c0,0.5,0.2,0.7,0.7,0.7c1.5,0,2.9,0,4.4,0c0.5,0,0.7-0.2,0.7-0.7c0-0.5,0-1,0-1.4c0-0.5-0.2-0.7-0.7-0.7c-0.5,0-1,0-1.5,0
							c-0.5,0-0.7-0.2-0.7-0.7c0-0.5,0-0.9,0-1.4c0-0.6-0.2-0.8-0.8-0.8c-0.5,0-1,0-1.4,0c-0.5,0-0.7-0.2-0.7-0.7c0-0.5,0-0.9,0-1.4
							c0-0.5,0.3-0.8,0.8-0.8c0.5,0,1,0,1.4,0c0.5,0,0.7-0.2,0.7-0.7c0-0.5,0-1,0-1.5c0-0.5-0.2-0.7-0.7-0.7c-0.4,0-0.9,0-1.3,0
							c-0.5,0-0.9-0.2-0.9-0.9c0-0.4,0-0.9,0-1.3c0-0.5-0.2-0.7-0.7-0.7c-0.5,0-1,0-1.5,0c-0.4,0-0.7-0.2-0.7-0.7c0-0.5,0-1,0-1.5
							c0-0.5,0.3-0.7,0.7-0.7c0.5,0,1,0,1.5,0c0.5,0,0.7,0.2,0.7,0.7c0,0.5,0,1,0,1.5c0,0.4,0.2,0.6,0.6,0.6c0.6,0,1.1,0,1.7,0
							c0.3,0,0.6-0.2,0.6-0.6c0-0.1,0-0.2,0-0.2c0-1.4,0-2.8,0-4.2c0-0.6-0.2-0.8-0.8-0.8c-1.2,0-2.4,0-3.6,0
							C199.9,137.4,198.7,137.4,197.5,137.4z M167.4,157.5c0.8,0,1.6,0,2.4,0c0.5,0,0.7-0.2,0.7-0.7c0-0.5,0-1,0-1.4
							c0-0.4-0.3-0.7-0.7-0.7c-0.4,0-0.9,0-1.3,0c-0.6,0-0.8-0.2-0.8-0.8c0-0.5,0-0.9,0-1.4c0-0.5-0.2-0.7-0.7-0.7c-0.5,0-1,0-1.5,0
							c-0.5,0-0.7,0.2-0.7,0.7c0,0.5,0,0.9,0,1.4c0,0.5-0.2,0.8-0.7,0.8c-0.5,0-1,0-1.4,0c-0.5,0-0.7-0.2-0.7-0.7c0-0.5,0-0.9,0-1.4
							c0-0.5,0.2-0.8,0.8-0.8c0.5,0,1,0,1.5,0c0.4,0,0.6-0.2,0.6-0.6c0-0.5,0-1.1,0-1.6c0-0.4-0.2-0.6-0.6-0.6c-0.1,0-0.2,0-0.3,0
							c-0.4,0-0.9,0-1.3,0c-0.4,0-0.7-0.2-0.7-0.7c0-0.1,0-0.2,0-0.2c0-0.4,0-0.8,0-1.3c0-0.4-0.2-0.7-0.7-0.7c0,0,0,0,0,0
							c-1.4,0-2.9,0-4.3,0c-0.1,0-0.1,0-0.2,0c-0.3,0-0.6,0.2-0.6,0.6c0,0.6,0,1.2,0,1.7c0,0.3,0.2,0.5,0.5,0.6c0.1,0,0.2,0,0.3,0
							c0.5,0,0.9,0,1.4,0c0.5,0,0.7,0.2,0.7,0.7c0,0,0,0.1,0,0.1c0,1.4,0,2.7,0,4.1c0,0.1,0,0.2,0,0.3c0,0.3-0.2,0.5-0.6,0.6
							c-0.1,0-0.2,0-0.3,0c-1.4,0-2.8,0-4.2,0c-0.5,0-0.7,0.2-0.7,0.7c0,1.5,0,2.9,0,4.4c0,0.4,0.2,0.7,0.7,0.7c0.5,0,1,0,1.5,0
							c0.5,0,0.8-0.2,0.8-0.7c0-0.5,0-0.9,0-1.4c0-0.5,0.3-0.8,0.8-0.8c0.1,0,0.3,0,0.4,0c2,0,4.1,0,6.1,0
							C164.6,157.5,166,157.5,167.4,157.5z M217,146.9c0-0.1,0-0.2,0-0.3c0-0.3-0.2-0.5-0.6-0.6c-0.6,0-1.2,0-1.8,0
							c-0.3,0-0.5,0.2-0.6,0.6c0,0.1,0,0.2,0,0.3c0,0.5,0,0.9,0,1.4c0,0.4-0.2,0.6-0.7,0.7c-0.1,0-0.2,0-0.3,0c-1.4,0-2.7,0-4.1,0
							c-0.6,0-0.8,0.2-0.8,0.8c0,1.4,0,2.8,0,4.2c0,0.5,0.2,0.8,0.8,0.8c0.6,0,1.2,0,1.8,0c0.8,0,1.7,0,2.5,0c0.2,0,0.5,0.1,0.6,0.3
							c0.1,0.1,0.1,0.3,0.1,0.5c0,0.5,0,1,0,1.5c0,0.4,0.2,0.6,0.6,0.7c0.2,0,0.4,0,0.6,0c0.3,0,0.6,0,0.9,0c0.4,0,0.6-0.2,0.7-0.6
							c0-0.1,0-0.2,0-0.3c0-1.6,0-3.2,0-4.8C217,150.1,217,148.5,217,146.9z M182.1,166.9c0-0.5,0.2-0.7,0.7-0.8c0.5,0,1,0,1.5,0
							c0.5,0,0.7-0.2,0.7-0.7c0-0.5,0-1,0-1.5c0-0.5-0.2-0.7-0.7-0.7c-0.5,0-1,0-1.5,0c-0.5,0-0.7-0.2-0.7-0.7c0-0.5,0-1,0-1.5
							c0-0.4-0.2-0.7-0.7-0.7c-0.5,0-1.1,0-1.6,0c-0.4,0-0.6,0.2-0.7,0.7c0,0.1,0,0.2,0,0.3c0,1.4,0,2.7,0,4.1c0,0.2,0,0.3-0.1,0.5
							c-0.1,0.2-0.3,0.3-0.6,0.3c-0.5,0-1,0-1.5,0c-0.5,0-0.7,0.2-0.7,0.7c0,0.5,0,1,0,1.4c0,0.5,0.2,0.7,0.7,0.7c0.5,0,1,0,1.5,0
							c0.4,0,0.7,0.2,0.7,0.7c0,0.1,0,0.2,0,0.3c0,1.3,0,2.7,0,4c0,0.6,0.2,0.8,0.8,0.8c0.5,0,0.9,0,1.4,0c0.5,0,0.8-0.2,0.8-0.8
							c0-1.2,0-2.4,0-3.5C182.1,169.3,182.1,168.1,182.1,166.9z M165.6,160.4c-1,0-2,0-3.1,0c-0.4,0-0.7,0.2-0.7,0.6
							c0,0.5,0,1.1,0,1.6c0,0.4,0.3,0.6,0.6,0.6c0.1,0,0.2,0,0.3,0c1.4,0,2.7,0,4.1,0c0.1,0,0.2,0,0.3,0c0.3,0,0.5,0.2,0.6,0.5
							c0,0.1,0,0.2,0,0.4c0,1.4,0,2.8,0,4.2c0,0.5,0.2,0.7,0.7,0.7c1.4,0,2.9,0,4.3,0c0.5,0,0.8-0.3,0.8-0.8c0-1.4,0-2.8,0-4.2
							c0-0.4-0.2-0.8-0.8-0.8c-0.5,0-1,0-1.5,0c-0.4,0-0.7-0.2-0.7-0.7c0-0.1,0-0.2,0-0.3c0-0.4,0-0.9,0-1.3c0-0.4-0.2-0.6-0.6-0.6
							c-0.1,0-0.2,0-0.3,0c-1.2,0-2.3,0-3.5,0C166,160.4,165.8,160.4,165.6,160.4z M175.6,186.3c0.5,0,0.7-0.2,0.7-0.7
							c0-2.4,0-4.8,0-7.2c0-0.5-0.2-0.7-0.7-0.7c-0.5,0-0.9,0-1.4,0c-0.5,0-0.8,0.3-0.8,0.8c0,0.5,0,1,0,1.4c0,0.4-0.2,0.7-0.7,0.7
							c-0.1,0-0.2,0-0.3,0c-1.3,0-2.7,0-4,0c-0.1,0-0.2,0-0.3,0c-0.3,0-0.5,0.3-0.5,0.5c0,0.1,0,0.2,0,0.3c0,1.4,0,2.8,0,4.2
							c0,0.1,0,0.2,0,0.3c0,0.3,0.2,0.5,0.5,0.5c0.1,0,0.2,0,0.3,0c1.2,0,2.3,0,3.5,0C173.2,186.3,174.4,186.3,175.6,186.3z
							 M193.8,118c0-0.5-0.2-0.8-0.8-0.8c-0.5,0-0.9,0-1.4,0c-0.5,0-0.7,0.2-0.7,0.7c0,0.5,0,0.9,0,1.4c0,0.5-0.2,0.8-0.8,0.8
							c-0.5,0-0.9,0-1.4,0c-0.5,0-0.7,0.2-0.8,0.8c0,1.4,0,2.8,0,4.2c0,0.5,0.2,0.8,0.8,0.8c0.5,0,1,0,1.4,0c0.1,0,0.2,0,0.3,0
							c0.3,0.1,0.4,0.3,0.4,0.6c0,0.5,0,1,0,1.5c0,0.4,0.2,0.7,0.6,0.7c0.6,0,1.1,0,1.7,0c0.4,0,0.6-0.3,0.6-0.6c0-0.1,0-0.2,0-0.3
							c0-1.6,0-3.3,0-4.9C193.8,121.3,193.8,119.6,193.8,118z M179.2,133.6c0,0.1,0,0.2,0,0.3c0,0.3,0.3,0.6,0.6,0.6
							c0.6,0,1.1,0,1.7,0c0.4,0,0.6-0.3,0.6-0.6c0-0.1,0-0.2,0-0.3c0-1.4,0-2.7,0-4.1c0-0.1,0-0.2,0-0.3c0-0.3,0.2-0.5,0.5-0.5
							c0.1,0,0.2,0,0.3,0c1.3,0,2.7,0,4,0c0.1,0,0.2,0,0.3,0c0.3,0,0.6-0.2,0.6-0.6c0-0.6,0-1.2,0-1.8c0-0.3-0.3-0.5-0.6-0.5
							c-0.1,0-0.2,0-0.3,0c-1.4,0-2.8,0-4.2,0c-0.5,0-0.8-0.2-0.8-0.8c0-0.5,0-1,0-1.5c0-0.4-0.2-0.6-0.6-0.6c-0.6,0-1.2,0-1.8,0
							c-0.3,0-0.5,0.2-0.6,0.6c0,0.1,0,0.2,0,0.3c0,1.6,0,3.2,0,4.9C179.2,130.3,179.2,132,179.2,133.6z M205.4,182.7
							c0,0.4-0.1,0.6-0.4,0.7c-0.1,0-0.2,0-0.4,0c-0.5,0-1,0-1.5,0c-0.4,0-0.6,0.2-0.6,0.6c0,0.6,0,1.2,0,1.7c0,0.3,0.2,0.5,0.6,0.6
							c0.1,0,0.2,0,0.3,0c1.4,0,2.8,0,4.1,0c0.1,0,0.2,0,0.2,0c0.4,0,0.6-0.2,0.6-0.6c0-0.1,0-0.2,0-0.3c0-1.4,0-2.7,0-4.1
							c0-0.5,0.2-0.7,0.7-0.7c0.5,0,1,0,1.4,0c0.5,0,0.7-0.2,0.7-0.7c0-0.5,0-1,0-1.4c0-0.5-0.2-0.7-0.7-0.7c-1.5,0-2.9,0-4.4,0
							c-0.4,0-0.8,0.3-0.7,0.7c0,0.7,0,1.4,0,2.1C205.4,181.2,205.4,182,205.4,182.7z M167.6,122.3c0,0.4,0.2,0.7,0.7,0.7
							c0.5,0,1,0,1.5,0c0.5,0,0.7-0.2,0.7-0.7c0-0.4,0-0.9,0-1.3c0-0.7,0.2-0.9,0.9-0.9c1.4,0,2.8,0,4.2,0c0.5,0,0.7-0.2,0.7-0.7
							c0-1.4,0-2.9,0-4.3c0-0.5-0.2-0.7-0.7-0.7c-0.5,0-1,0-1.5,0c-0.5,0-0.7,0.2-0.7,0.7c0,0.5,0,0.9,0,1.4c0,0.5-0.2,0.8-0.8,0.8
							c-0.1,0-0.2,0-0.2,0c-1.4,0-2.7,0-4.1,0c-0.2,0-0.3,0-0.5,0.1c-0.2,0.1-0.2,0.3-0.2,0.6c0,0.7,0,1.5,0,2.2
							C167.6,120.8,167.6,121.6,167.6,122.3z M217,178.4c0-0.5-0.2-0.7-0.7-0.7c-0.5,0-1,0-1.5,0c-0.5,0-0.7,0.2-0.7,0.7
							c0,0.5,0,1,0,1.4c0,0.5-0.2,0.7-0.7,0.7c-0.5,0-1,0-1.5,0c-0.4,0-0.7,0.2-0.7,0.6c0,1.5,0,3,0,4.5c0,0,0,0,0,0
							c0,0.3,0.2,0.6,0.6,0.6c0.1,0,0.2,0,0.3,0c1.4,0,2.7,0,4.1,0c0.1,0,0.2,0,0.3,0c0.3,0,0.5-0.2,0.5-0.5c0-0.1,0-0.2,0-0.3
							c0-1.2,0-2.3,0-3.5C217,180.8,217,179.6,217,178.4z M184.3,180.5c0.5,0,0.7-0.2,0.7-0.7c0-1.4,0-2.9,0-4.3
							c0-0.5-0.2-0.7-0.7-0.7c-0.5,0-1,0-1.5,0c-0.5,0-0.7,0.2-0.7,0.7c0,0.4,0,0.9,0,1.4c0,0.5-0.2,0.8-0.8,0.8c-0.4,0-0.9,0-1.3,0
							c-0.5,0-0.8,0.2-0.8,0.7c0,0.5,0,0.9,0,1.4c0,0.5,0.2,0.7,0.7,0.7c0.7,0,1.4,0,2.1,0C182.9,180.5,183.6,180.5,184.3,180.5z
							 M191.6,180.5c-0.5,0-0.7,0.2-0.7,0.7c0,1.4,0,2.9,0,4.3c0,0.5,0.2,0.7,0.7,0.7c0.5,0,1,0,1.5,0c0.5,0,0.7-0.2,0.7-0.7
							c0-0.5,0-1,0-1.4c0-0.5,0.2-0.7,0.7-0.7c0.5,0,1,0,1.5,0c0.5,0,0.7-0.2,0.7-0.7c0-0.5,0-1,0-1.4c0-0.5-0.2-0.7-0.7-0.7
							c-0.7,0-1.4,0-2.1,0C193,180.5,192.3,180.5,191.6,180.5z M193,143.1c0.5,0,0.7-0.2,0.7-0.7c0-1.4,0-2.9,0-4.3
							c0-0.5-0.2-0.7-0.7-0.7c-0.5,0-1,0-1.5,0c-0.5,0-0.7,0.2-0.7,0.7c0,0.5,0,1,0,1.4c0,0.5-0.2,0.7-0.7,0.7c-0.5,0-1,0-1.5,0
							c-0.5,0-0.7,0.2-0.7,0.7c0,0.5,0,0.9,0,1.4c0,0.5,0.2,0.7,0.8,0.7c0.7,0,1.4,0,2.1,0C191.6,143.1,192.3,143.1,193,143.1z
							 M209,137.4c-0.5,0-0.7,0.2-0.7,0.7c0,0.5,0,1,0,1.5c0,0.5,0.2,0.7,0.7,0.7c0.5,0,1,0,1.5,0c0.5,0,0.7,0.2,0.7,0.7
							c0,0.5,0,1,0,1.5c0,0.4,0.2,0.7,0.7,0.7c0.5,0,1.1,0,1.6,0c0.4,0,0.6-0.2,0.7-0.6c0,0,0-0.1,0-0.1c0-1.4,0-2.8,0-4.2
							c0-0.6-0.2-0.8-0.8-0.8c-0.7,0-1.4,0-2.1,0C210.5,137.4,209.7,137.4,209,137.4z M150.2,158.2c0-0.5-0.2-0.7-0.7-0.7
							c-0.5,0-1,0-1.5,0c-0.5,0-0.7,0.2-0.7,0.7c0,0.5,0,1,0,1.5c0,0.4-0.3,0.7-0.7,0.7c-0.5,0-1,0-1.4,0c-0.5,0-0.8,0.2-0.8,0.7
							c0,0.5,0,0.9,0,1.4c0,0.5,0.2,0.7,0.7,0.7c1.4,0,2.9,0,4.3,0c0,0,0,0,0.1,0c0.5,0,0.7-0.2,0.7-0.7c0-0.7,0-1.5,0-2.2
							C150.2,159.7,150.2,158.9,150.2,158.2z M185.8,154.6c-0.5,0-0.8,0.3-0.8,0.7c0,0.5,0,0.9,0,1.4c0,0.5,0.2,0.7,0.7,0.7
							c2.4,0,4.8,0,7.2,0c0.5,0,0.7-0.2,0.7-0.7c0-0.5,0-0.9,0-1.4c0-0.5-0.2-0.8-0.8-0.8c-1.2,0-2.4,0-3.6,0
							C188.2,154.6,187,154.6,185.8,154.6z M173.4,174.1c0,0.5,0.2,0.7,0.7,0.7c0.5,0,1,0,1.4,0c0.5,0,0.7-0.2,0.7-0.7
							c0-1.4,0-2.9,0-4.3c0-0.5-0.2-0.7-0.7-0.7c-0.5,0-0.9,0-1.4,0c-0.4,0-0.8,0.2-0.8,0.8c0,0.7,0,1.4,0,2.1
							C173.4,172.6,173.4,173.3,173.4,174.1z M161.1,143.1c0.5,0,0.7-0.2,0.7-0.7c0-0.5,0-1,0-1.5c0-0.5-0.2-0.7-0.7-0.7
							c-1.5,0-2.9,0-4.4,0c-0.4,0-0.7,0.3-0.7,0.7c0,0.5,0,1,0,1.4c0,0.5,0.3,0.7,0.7,0.7c0.7,0,1.4,0,2.2,0
							C159.6,143.1,160.3,143.1,161.1,143.1z M206.1,143.1c-0.4,0-0.7,0.2-0.7,0.7c0,0.5,0,1,0,1.5c0,0.4,0.2,0.7,0.7,0.7
							c1.5,0,2.9,0,4.4,0c0.5,0,0.7-0.2,0.7-0.7c0-0.5,0-1,0-1.4c0-0.5-0.2-0.7-0.8-0.7c-0.7,0-1.4,0-2.1,0
							C207.6,143.1,206.8,143.1,206.1,143.1z M166.9,140.2c0.6,0,0.8-0.3,0.8-0.7c0-0.5,0-0.9,0-1.4c0-0.5-0.2-0.7-0.7-0.7
							c-1.4,0-2.9,0-4.3,0c-0.5,0-0.7,0.2-0.7,0.7c0,0.5,0,0.9,0,1.4c0,0.5,0.2,0.7,0.8,0.7c0.7,0,1.4,0,2.1,0
							C165.4,140.2,166.1,140.2,166.9,140.2z M149.5,140.2c0.5,0,0.7-0.2,0.7-0.7c0-0.5,0-1,0-1.4c0-0.5-0.2-0.7-0.7-0.7
							c-1.5,0-2.9,0-4.4,0c-0.5,0-0.7,0.2-0.7,0.7c0,0.5,0,0.9,0,1.4c0,0.5,0.2,0.7,0.7,0.7c0.7,0,1.4,0,2.1,0
							C148,140.2,148.7,140.2,149.5,140.2z M168.3,174.8c-0.5,0-0.7,0.2-0.7,0.7c0,0.5,0,1,0,1.4c0,0.5,0.2,0.7,0.7,0.7
							c1.5,0,2.9,0,4.4,0c0.5,0,0.7-0.2,0.7-0.7c0-0.5,0-0.9,0-1.4c0-0.5-0.2-0.7-0.7-0.7c-0.7,0-1.5,0-2.2,0
							C169.8,174.8,169.1,174.8,168.3,174.8z M182.8,117.2c-0.5,0-0.7,0.2-0.7,0.7c0,0.5,0,1,0,1.5c0,0.5,0.2,0.7,0.7,0.7
							c1.5,0,2.9,0,4.4,0c0.5,0,0.7-0.2,0.7-0.7c0-0.5,0-1,0-1.5c0-0.5-0.3-0.7-0.7-0.7c-0.7,0-1.4,0-2.2,0
							C184.3,117.2,183.6,117.2,182.8,117.2z M146.6,151.7c0.4,0,0.7-0.2,0.7-0.6c0-0.5,0-1.1,0-1.6c0-0.4-0.2-0.6-0.6-0.6
							c-0.5,0-1.1,0-1.6,0c-0.4,0-0.6,0.3-0.6,0.7c0,0.5,0,1.1,0,1.6c0,0.4,0.2,0.6,0.6,0.6c0.3,0,0.5,0,0.8,0
							C146.1,151.7,146.3,151.8,146.6,151.7z M153.1,152.5C153.1,152.4,153.1,152.4,153.1,152.5c0-0.5-0.2-0.7-0.7-0.7
							c-0.5,0-1.1,0-1.6,0c-0.4,0-0.6,0.2-0.6,0.6c0,0.5,0,1.1,0,1.6c0,0.4,0.3,0.6,0.6,0.6c0.5,0,1.1,0,1.6,0
							c0.4,0,0.6-0.3,0.6-0.6c0-0.3,0-0.5,0-0.8C153.1,153,153.1,152.7,153.1,152.5z M173.4,140.9c0-0.4-0.2-0.7-0.7-0.7
							c-0.5,0-1,0-1.6,0c-0.4,0-0.7,0.2-0.7,0.7c0,0.5,0,1.1,0,1.6c0,0.4,0.3,0.6,0.7,0.6c0.5,0,1.1,0,1.6,0c0.4,0,0.6-0.2,0.7-0.7
							c0-0.3,0-0.5,0-0.8C173.4,141.4,173.4,141.2,173.4,140.9z M153.1,140.9c0-0.4-0.2-0.7-0.7-0.7c-0.5,0-1.1,0-1.6,0
							c-0.4,0-0.6,0.2-0.7,0.6c0,0.5,0,1.1,0,1.6c0,0.4,0.3,0.6,0.6,0.6c0.5,0,1.1,0,1.6,0c0.4,0,0.6-0.2,0.6-0.7c0-0.3,0-0.5,0-0.8
							C153.1,141.4,153.1,141.2,153.1,140.9z M155.3,151.7C155.3,151.7,155.3,151.7,155.3,151.7c0.5,0,0.7-0.2,0.7-0.6
							c0-0.5,0-1.1,0-1.6c0-0.4-0.2-0.6-0.6-0.6c-0.6,0-1.1,0-1.7,0c-0.4,0-0.6,0.2-0.6,0.6c0,0.5,0,1.1,0,1.6
							c0,0.4,0.3,0.6,0.6,0.6c0.3,0,0.5,0,0.8,0C154.8,151.7,155,151.7,155.3,151.7z M144.4,145.3c0,0.4,0.2,0.7,0.6,0.7
							c0.5,0,1.1,0,1.6,0c0.4,0,0.6-0.3,0.6-0.6c0-0.5,0-1.1,0-1.6c0-0.4-0.3-0.6-0.7-0.6c-0.5,0-1.1,0-1.6,0
							c-0.4,0-0.6,0.2-0.7,0.6c0,0.3,0,0.5,0,0.8C144.4,144.8,144.4,145.1,144.4,145.3z M193.1,134.5c0.4,0,0.6-0.2,0.6-0.6
							c0-0.5,0-1.1,0-1.6c0-0.4-0.3-0.6-0.7-0.6c-0.5,0-1.1,0-1.6,0c-0.4,0-0.6,0.2-0.7,0.6c0,0.5,0,1.1,0,1.6
							c0,0.4,0.2,0.6,0.7,0.7c0.3,0,0.5,0,0.8,0C192.6,134.5,192.9,134.5,193.1,134.5z M190.9,115.8c0-0.2,0-0.5,0-0.7
							c0,0,0,0,0-0.1c0-0.4-0.2-0.6-0.6-0.6c-0.6,0-1.1,0-1.7,0c-0.4,0-0.6,0.2-0.6,0.6c0,0.6,0,1.1,0,1.7c0,0.3,0.2,0.6,0.6,0.6
							c0.6,0,1.1,0,1.7,0c0.4,0,0.6-0.3,0.6-0.6C190.9,116.3,190.9,116,190.9,115.8L190.9,115.8z M184.4,160.4
							c0.4,0,0.6-0.2,0.6-0.6c0-0.5,0-1.1,0-1.6c0-0.4-0.2-0.6-0.6-0.6c-0.6,0-1.1,0-1.7,0c-0.4,0-0.6,0.2-0.6,0.6
							c0,0.5,0,1.1,0,1.6c0,0.4,0.3,0.6,0.7,0.6c0.3,0,0.5,0,0.8,0C183.9,160.4,184.1,160.4,184.4,160.4z M162.5,143.1
							c-0.4,0-0.7,0.2-0.7,0.6c0,0.5,0,1.1,0,1.6c0,0.4,0.3,0.6,0.6,0.6c0.5,0,1.1,0,1.6,0c0.4,0,0.6-0.3,0.6-0.7c0-0.5,0-1.1,0-1.6
							c0-0.4-0.2-0.6-0.7-0.6c-0.3,0-0.5,0-0.8,0C163,143.1,162.7,143.1,162.5,143.1z M153.8,143.1c-0.4,0-0.7,0.2-0.7,0.7
							c0,0.5,0,1,0,1.5c0,0.4,0.2,0.7,0.7,0.7c0.5,0,1,0,1.6,0c0.4,0,0.7-0.2,0.7-0.7c0-0.5,0-1.1,0-1.6c0-0.4-0.2-0.6-0.7-0.6
							c-0.3,0-0.5,0-0.8,0C154.3,143.1,154,143.1,153.8,143.1z M214.1,161.8c0,0.3,0,0.5,0,0.8c0,0,0,0,0,0.1c0,0.4,0.2,0.6,0.6,0.6
							c0.6,0,1.1,0,1.7,0c0.4,0,0.6-0.2,0.6-0.6c0-0.6,0-1.1,0-1.7c0-0.4-0.2-0.6-0.6-0.6c-0.6,0-1.1,0-1.7,0
							c-0.4,0-0.6,0.3-0.6,0.6C214.1,161.3,214.1,161.5,214.1,161.8L214.1,161.8z M145,154.6c-0.4,0-0.6,0.2-0.6,0.6
							c0,0.5,0,1.1,0,1.6c0,0.4,0.2,0.6,0.6,0.6c0.6,0,1.1,0,1.7,0c0.4,0,0.6-0.2,0.6-0.6c0-0.6,0-1.1,0-1.7c0-0.4-0.3-0.6-0.6-0.6
							c-0.3,0-0.5,0-0.8,0C145.6,154.6,145.3,154.6,145,154.6z M185.1,182.8c0,0.4,0.2,0.7,0.7,0.7c0.5,0,1.1,0,1.6,0
							c0.4,0,0.6-0.2,0.6-0.6c0-0.5,0-1.1,0-1.6c0-0.4-0.2-0.6-0.6-0.6c-0.6,0-1.1,0-1.7,0c-0.4,0-0.6,0.2-0.6,0.6
							c0,0.3,0,0.5,0,0.8C185.1,182.2,185,182.5,185.1,182.8z M185.1,133.8C185.1,133.8,185.1,133.8,185.1,133.8
							c0,0.5,0.2,0.7,0.6,0.7c0.5,0,1.1,0,1.6,0c0.4,0,0.7-0.2,0.7-0.6c0-0.5,0-1.1,0-1.6c0-0.4-0.2-0.6-0.7-0.6c-0.5,0-1.1,0-1.6,0
							c-0.4,0-0.6,0.2-0.6,0.7c0,0.3,0,0.5,0,0.8C185.1,133.3,185.1,133.5,185.1,133.8z M183.6,183.4c-0.3,0-0.5,0-0.8,0
							c0,0,0,0-0.1,0c-0.4,0-0.6,0.2-0.6,0.6c0,0.5,0,1.1,0,1.6c0,0.4,0.2,0.6,0.6,0.6c0.6,0,1.1,0,1.7,0c0.4,0,0.6-0.2,0.6-0.6
							c0-0.6,0-1.1,0-1.7c0-0.4-0.3-0.6-0.6-0.6C184.1,183.4,183.9,183.4,183.6,183.4L183.6,183.4z M154.5,137.4c-0.2,0-0.5,0-0.7,0
							c0,0,0,0-0.1,0c-0.4,0-0.6,0.2-0.7,0.6c0,0.5,0,1,0,1.6c0,0.4,0.2,0.6,0.6,0.6c0.5,0,1.1,0,1.6,0c0.4,0,0.6-0.2,0.6-0.6
							c0-0.6,0-1.1,0-1.7c0-0.4-0.3-0.6-0.6-0.6C155.1,137.4,154.8,137.4,154.5,137.4L154.5,137.4z M190.9,129.4
							c0-0.4-0.2-0.6-0.6-0.7c-0.5,0-1.1,0-1.6,0c-0.4,0-0.6,0.2-0.6,0.6c0,0.5,0,1.1,0,1.6c0,0.4,0.2,0.6,0.7,0.6
							c0.5,0,1.1,0,1.6,0c0.4,0,0.6-0.2,0.7-0.7c0-0.2,0-0.5,0-0.7C190.9,129.9,190.9,129.6,190.9,129.4z M178.6,177.7
							c0.4,0,0.6-0.2,0.6-0.6c0-0.5,0-1.1,0-1.6c0-0.4-0.2-0.6-0.6-0.6c-0.5,0-1.1,0-1.6,0c-0.4,0-0.6,0.2-0.6,0.6
							c0,0.5,0,1.1,0,1.6c0,0.4,0.2,0.6,0.6,0.6c0.3,0,0.5,0,0.8,0C178,177.7,178.3,177.7,178.6,177.7z M198.1,169
							c0.3,0,0.6,0,0.8,0c0.4,0,0.6-0.2,0.6-0.6c0-0.5,0-1.1,0-1.6c0-0.4-0.2-0.6-0.6-0.6c-0.6,0-1.1,0-1.7,0
							c-0.4,0-0.6,0.2-0.6,0.6c0,0.5,0,1.1,0,1.6c0,0.4,0.2,0.6,0.7,0.6C197.6,169,197.9,169,198.1,169L198.1,169z M158.9,122.1
							c0-0.4,0-0.7,0-1.1c0-0.7-0.2-0.9-0.9-0.9c-2.3,0-4.7,0-7,0c-0.1,0-0.2,0-0.3,0c-0.4,0-0.6,0.2-0.6,0.6c0,0.1,0,0.2,0,0.3
							c0,2.3,0,4.6,0,6.9c0,0.1,0,0.1,0,0.2c0,0.4,0.2,0.7,0.7,0.7c0.1,0,0.1,0,0.2,0c2.3,0,4.7,0,7,0c0.1,0,0.2,0,0.3,0
							c0.3,0,0.5-0.2,0.6-0.6c0-0.1,0-0.2,0-0.3c0-1.1,0-2.3,0-3.4C158.9,123.6,158.9,122.8,158.9,122.1z M202.5,127.2
							c0,0.3,0,0.6,0,0.9c0,0.4,0.2,0.6,0.6,0.6c0.1,0,0.2,0,0.2,0c2.4,0,4.7,0,7.1,0c0.1,0,0.2,0,0.3,0c0.3,0,0.5-0.3,0.5-0.6
							c0-0.1,0-0.2,0-0.3c0-2.3,0-4.7,0-7c0-0.1,0-0.1,0-0.2c0-0.3-0.2-0.6-0.6-0.6c-0.1,0-0.2,0-0.3,0c-2.3,0-4.7,0-7,0
							c-0.1,0-0.2,0-0.3,0c-0.2,0-0.4,0.1-0.4,0.3c0,0.1-0.1,0.3-0.1,0.4c0,1.2,0,2.4,0,3.6C202.5,125.3,202.5,126.3,202.5,127.2z
							 M158.1,180.5c0.4,0,0.8-0.2,0.8-0.7c0-2.4,0-4.8,0-7.1c0-0.5-0.3-0.8-0.8-0.8c-2.4,0-4.8,0-7.2,0c-0.5,0-0.8,0.3-0.8,0.8
							c0,2.4,0,4.7,0,7.1c0,0.6,0.2,0.8,0.8,0.8c1.2,0,2.4,0,3.6,0C155.7,180.5,156.9,180.5,158.1,180.5z"/>
					</g>
					<linearGradient id="SVGID_3_" gradientUnits="userSpaceOnUse" x1="181.3808" y1="215.7654" x2="181.3808" y2="114.4546">
						<stop  offset="0.1412" style="stop-color:#1B2A32"/>
						<stop  offset="1" style="stop-color:#FFFFFF;stop-opacity:0"/>
					</linearGradient>
					<rect x="130.1" y="100.7" class="st16" width="102.5" height="101.3"/>
					<rect x="130.1" y="184.1" class="st17" width="102.5" height="2.8"/>
					<path class="st9" d="M233.6,116.3h-3.4V103h-14.9v-3.3h18.3V116.3z M132.7,103h13.7v-3.3h-17v16.7h3.4V103z M146.4,199.6h-13.7
						v-15h-3.4V203h17V199.6z M233.6,184.6h-3.4v15h-14.9v3.3h18.3V184.6z"/>
					<path class="st18" d="M102.1,100.4l158.8,157.3V282v0.8c0,0,0,0.1,0,0.1h-35.1L102.1,160.4V100.4z M179.2,34.9h-76.6
						c-0.3,0.2-0.5,0.4-0.5,0.6v4.7v21.9v8.8l158.8,157.3V115.8L179.2,34.9z"/>
				</g>
				<path class="st7" d="M412.7,26.2"/>
			</g>
			<g class="st19">
				<path class="st9" d="M125.5,267.7c8.9,7.9,18.5,14.9,28.4,21.4c1.5,1,3,1.9,4.5,2.9c-1.2-22.5-1.8-47.2,1.3-60.8
					c6.6-28.8,14-64.8-5.1-69.5c-19.1-4.7-30.5,18.7-35.9,46.6c-2.7,13.8-7.7,30.1-12.2,42.9C113.1,256.4,119.2,262.1,125.5,267.7z"
					/>
			</g>
			<g>
				<path class="st2" d="M155.2,220.9c3.9-29.3,8-65.7-11.5-68.7c-19.5-3-28.6,21.4-31.4,49.7c-2.8,28.3-14.4,67.2-14.4,67.2
					s-17,66.7-4.2,95.3l71.3-46.2C162,295.3,152.1,243.6,155.2,220.9z"/>
			</g>
		</g>
		<path class="st20" d="M144.4,215.8c0,0-5.1,0-11.2-0.7c-6.1-0.7-10.9-2-10.9-2s5.1-0.6,11.2,0.2
			C139.6,214.1,144.4,215.8,144.4,215.8z M132.9,217c-5.3-0.6-9.7-0.4-9.7-0.4s4.2,1,9.5,1.6c5.3,0.6,9.7,0.7,9.7,0.7
			S138.2,217.7,132.9,217z"/>
		<path class="st20" d="M164.9,318.1c-0.4-3.4-1-7.4-1.7-11.8C157,319,123.9,374.7,37,353l-6.3,22.7l76,39.9
			c0,0,40.8-47.8,54.3-78.6c2-4.5,3.7-8.7,5.3-12.5L164.9,318.1z"/>
		<polygon class="st21" points="109.2,464.2 2.2,427.8 30.5,362.2 126,395.6 		"/>
	</g>
	<g>
		<g>
			<path class="st22" d="M358.5,266.1c-28.6,0-57.1,0-85.7,0c-0.5,0-1.1,0-1.6-0.1c-2.4-0.5-4.1-2.6-4.1-5.1c0-0.2,0-0.4,0-0.7
				c0-58.1,0-116.3,0-174.4c0-0.7,0-1.4,0.2-2c0.6-2.3,2.6-3.9,4.9-4c0.2,0,0.4,0,0.7,0c57.1,0,114.1,0,171.2,0c0.6,0,1.2,0,1.8,0.2
				c2.3,0.5,3.9,2.6,4,5c0,0.3,0,0.6,0,0.9c0,58.1,0,116.2,0,174.3c0,0.6,0,1.3-0.2,1.9c-0.5,2.3-2.5,4-4.9,4.1c-0.3,0-0.6,0-0.9,0
				C415.4,266.1,387,266.1,358.5,266.1z"/>
			<path class="st14" d="M358.5,241.2c-21.5,0-43.1,0-64.6,0c-0.4,0-0.8,0-1.2-0.1c-1.8-0.4-3.1-1.9-3.1-3.8c0-0.2,0-0.3,0-0.5
				c0-42.6,0-85.2,0-127.8c0-0.5,0-1,0.1-1.5c0.4-1.7,1.9-2.9,3.7-2.9c0.2,0,0.3,0,0.5,0c43,0,86.1,0,129.1,0c0.4,0,0.9,0,1.3,0.1
				c1.7,0.4,2.9,1.9,3,3.7c0,0.2,0,0.4,0,0.6c0,42.6,0,85.1,0,127.7c0,0.5,0,1-0.1,1.4c-0.4,1.7-1.9,2.9-3.7,3c-0.2,0-0.5,0-0.7,0
				C401.4,241.2,380,241.2,358.5,241.2z"/>
			<path class="st15" d="M409.5,197.2c1.1,0,2.2,0,3.3,0c0.8,0,1.2,0.3,1.2,1.1c0,2.2,0,4.4,0,6.5c0,0.8-0.3,1.1-1.2,1.1
				c-0.7,0-1.4,0-2.1,0c-0.8,0-1.1,0.3-1.1,1.1c0,0.7,0,1.4,0,2.2c0,0.8-0.4,1.1-1.2,1.1c-2.2,0-4.4,0-6.6,0c-0.8,0-1.2-0.3-1.2-1.2
				c0-0.7,0-1.4,0-2.1c0-0.8-0.3-1.1-1.1-1.1c-0.7,0-1.5,0-2.2,0c-0.8,0-1.1,0.3-1.1,1.1c0,2.1,0,4.2,0,6.2c0,0.1,0,0.3,0,0.4
				c0,0.7-0.4,1-1,1c-0.7,0-1.4,0-2.1,0c-0.8,0-1.3,0.4-1.3,1.2c0,0.7,0,1.4,0,2.1c0,0.8-0.3,1.1-1.1,1.1c-0.6,0-1.3,0-1.9,0
				c-1.2,0-1.4-0.2-1.4-1.4c0-2,0-4,0-6.1c0-0.1,0-0.3,0-0.4c0-0.5-0.4-0.9-0.9-0.9c-0.9,0-1.8,0-2.6,0c-0.6,0-0.9,0.4-0.9,1
				c0,0.7,0,1.5,0,2.2c0,0.2,0,0.4-0.1,0.5c-0.1,0.4-0.4,0.6-0.7,0.6c-0.2,0-0.3,0-0.5,0c-2.1,0-4.1,0-6.2,0c-0.1,0-0.3,0-0.4,0
				c-0.6,0-1,0.4-1,1c0,0.7,0,1.3,0,2c0,0.1,0,0.3,0,0.4c0,0.6-0.4,0.9-0.9,0.9c-0.8,0-1.7,0-2.5,0c-0.5,0-0.9-0.4-0.9-0.9
				c0-0.1,0-0.3,0-0.4c0-2,0-4,0-6.1c0-0.1,0-0.3,0-0.4c0-0.7-0.4-1-1-1c-0.7,0-1.5,0-2.2,0c-0.8,0-1.2-0.3-1.2-1.2
				c0-0.7,0-1.4,0-2.1c0-0.8,0.3-1.1,1.2-1.1c2.1,0,4.2,0,6.4,0c0.1,0,0.3,0,0.4,0c0.6,0,0.9-0.4,1-1c0-0.8,0-1.6,0-2.4
				c0-0.6-0.4-1-1-1c-0.6,0-1.2,0-1.8,0c-0.2,0-0.4,0-0.6,0c-0.6,0-1-0.4-1-1c0-0.8,0-1.6,0-2.5c0-0.6,0.4-0.9,1-1
				c0.8,0,1.6,0,2.3,0c0.7,0,1.1-0.4,1.1-1.1c0-0.1,0-0.3,0-0.4c0-2,0-4,0-6c0-0.1,0-0.3,0-0.4c0-0.6,0.4-0.9,0.9-1
				c0.1,0,0.3,0,0.4,0c2.1,0,4.2,0,6.4,0c0.8,0,1.2-0.5,1.2-1.2c0-2.1,0-4.2,0-6.2c0-0.2,0-0.3,0-0.5c0-0.5,0.4-0.8,0.9-0.8
				c0.9,0,1.8,0,2.6,0c0.5,0,0.9,0.4,0.9,0.9c0,0.7,0,1.4,0,2.1c0,0.1,0,0.3,0,0.4c0,0.6,0.4,0.9,1,1c0.7,0,1.4,0,2,0
				c0.2,0,0.3,0,0.5,0c0.6,0,0.9,0.4,0.9,1c0,0.7,0,1.3,0,2c0,0.1,0,0.3,0,0.4c0,0.7,0.4,1.1,1.1,1.1c0.7,0,1.5,0,2.2,0
				c0.9,0,1.2,0.3,1.2,1.2c0,2.1,0,4.1,0,6.2c0,0.1,0,0.3,0,0.4c0,0.6,0.4,1,1,1c0.6,0,1.3,0,1.9,0c0.2,0,0.3,0,0.5,0
				c0.6,0,0.9,0.4,1,1c0,0.7,0,1.4,0,2.1c0,0.1,0,0.3,0,0.4c0.1,0.5,0.4,0.8,0.9,0.9c0.9,0,1.7,0,2.6,0c0.6,0,0.9-0.4,0.9-0.9
				c0-0.6,0-1.2,0-1.9c0-0.2,0-0.4,0-0.5c0-0.7,0.4-1,1-1C407.2,197.2,408.4,197.2,409.5,197.2L409.5,197.2z M378.4,199.3
				c0,1.8,0,3.6,0,5.4c0,0.1,0,0.3,0,0.4c0,0.5,0.4,0.8,0.8,0.9c0.1,0,0.2,0,0.3,0c3.6,0,7.3,0,10.9,0c0.1,0,0.2,0,0.3,0
				c0.5,0,0.8-0.4,0.9-0.9c0-0.1,0-0.3,0-0.4c0-3.5,0-7.1,0-10.6c0-0.1,0-0.3,0-0.4c0-0.5-0.4-0.8-0.9-0.9c-0.1,0-0.2,0-0.3,0
				c-3.6,0-7.2,0-10.8,0c-0.1,0-0.3,0-0.4,0c-0.5,0.1-0.8,0.4-0.8,0.8c0,0.1,0,0.3,0,0.4C378.4,195.8,378.4,197.6,378.4,199.3z
				 M356.2,172.1c0-1,0.4-1.4,1.4-1.4c3.6,0,7.2,0,10.8,0c0.8,0,1.1-0.3,1.1-1.1c0-0.7,0-1.4,0-2.1c0-0.8-0.5-1.2-1.2-1.1
				c-2,0-4,0-6.1,0c-0.2,0-0.4,0-0.6,0c-0.6,0-1-0.4-1-1c0-0.8,0-1.6,0-2.4c0-0.6,0.4-1,1-1c0.2,0,0.4,0,0.5,0c0.6,0,1.3,0,1.9,0
				c0.6,0,1-0.4,1-0.9c0-0.1,0-0.2,0-0.3c0-2.1,0-4.2,0-6.3c0-0.1,0-0.3,0-0.4c-0.1-0.5-0.4-0.8-0.9-0.8c-0.1,0-0.3,0-0.4,0
				c-2.1,0-4.1,0-6.2,0c-0.2,0-0.3,0-0.5,0c-0.5-0.1-0.8-0.4-0.8-0.8c0-0.1,0-0.3,0-0.4c0-0.7,0-1.4,0-2.2c0-0.6-0.4-0.9-0.9-0.9
				c-0.1,0-0.3,0-0.4,0c-0.7,0-1.4,0-2,0c-0.6,0-1-0.4-1-1c0-0.1,0-0.3,0-0.4c0-3.5,0-7,0-10.4c0-1.1-0.3-1.3-1.4-1.3
				c-0.7,0-1.3,0-2,0c-0.7,0-1.1-0.4-1.1-1.1c0-0.7,0-1.4,0-2.2c0-0.8-0.3-1.1-1.1-1.2c-0.7,0-1.4,0-2.1,0c-0.8,0-1.2,0.3-1.2,1.2
				c0,0.7,0,1.5,0,2.2c0,0.7-0.4,1-1,1c-0.1,0-0.3,0-0.4,0c-0.7,0-1.3,0-2,0c-0.7,0-1,0.3-1,1c0,0.1,0,0.2,0,0.3c0,5,0,10,0,15
				c0,0.1,0,0.3,0,0.4c0,0.5,0.4,0.9,0.9,0.9c0.9,0,1.8,0,2.6,0c0.5,0,0.9-0.4,0.9-0.9c0-0.1,0-0.3,0-0.4c0-3.5,0-7,0-10.5
				c0-0.2,0-0.3,0-0.5c0.1-0.5,0.4-0.8,0.9-0.8c0.9,0,1.8,0,2.7,0c0.5,0,0.8,0.4,0.8,0.9c0,0.1,0,0.3,0,0.4c0,3.5,0,7,0,10.5
				c0,0.1,0,0.3,0,0.4c0,0.5,0.3,0.8,0.8,0.9c0.1,0,0.3,0,0.4,0c0.7,0,1.5,0,2.2,0c0.6,0,1,0.4,1,1c0,0.1,0,0.2,0,0.3
				c0,3.5,0,7,0,10.5c0,0.1,0,0.2,0,0.3c0,0.6-0.4,1-1,1c-0.1,0-0.3,0-0.4,0c-5,0-9.9,0-14.9,0c-0.2,0-0.3,0-0.5,0
				c-0.5,0-0.9,0.4-0.9,0.9c0,0.9,0,1.7,0,2.6c0,0.5,0.4,0.8,0.9,0.9c0.1,0,0.3,0,0.4,0c2.4,0,4.8,0,7.1,0c1.2,0,2.4,0,3.6,0
				c0.9,0,1.2,0.3,1.2,1.2c0,0.7,0,1.4,0,2.2c0,0.7,0.4,1,1.1,1.1c0.7,0,1.5,0,2.2,0c0.8,0,1.1,0.4,1.1,1.1c0,0.7,0,1.4,0,2.1
				c0,0.8-0.3,1.2-1.2,1.2c-0.7,0-1.5,0-2.2,0c-0.7,0-1,0.3-1,1c0,2.3,0,4.5,0,6.8c0,0.6,0.4,1,1,1c0,0,0.1,0,0.1,0
				c2.2,0,4.4,0,6.6,0c0.1,0,0.2,0,0.3,0c0.4-0.1,0.8-0.4,0.8-0.8c0-0.2,0-0.3,0-0.5c0-2.5,0-5,0-7.4
				C356.2,177.1,356.2,174.6,356.2,172.1z M334,133.4c0,4.7,0,9.4,0,14.1c0,0.1,0,0.3,0,0.4c0,0.5-0.4,0.8-0.9,0.9
				c-0.1,0-0.2,0-0.3,0c-9.5,0-19,0-28.6,0c-0.1,0-0.2,0-0.3,0c-0.5,0-0.9-0.4-0.9-0.9c0-0.1,0-0.2,0-0.3c0-9.4,0-18.9,0-28.3
				c0-0.1,0-0.3,0-0.4c0-0.5,0.4-0.8,0.9-0.9c0.1,0,0.3,0,0.4,0c9.5,0,19,0,28.5,0c0.1,0,0.3,0,0.4,0c0.5,0,0.8,0.4,0.8,0.8
				c0,0.2,0,0.3,0,0.5C334,124,334,128.7,334,133.4z M307.4,133.4c0,3.4,0,6.8,0,10.1c0,0.7,0.1,0.8,0.9,0.9c0,0,0.1,0,0.1,0
				c6.8,0,13.5,0,20.3,0c0.1,0,0.3,0,0.4,0c0.4,0,0.5-0.2,0.6-0.6c0-0.1,0-0.2,0-0.3c0-6.7,0-13.4,0-20.2c0-0.1,0-0.3,0-0.4
				c0-0.3-0.2-0.5-0.5-0.5c-0.1,0-0.3,0-0.4,0c-6.8,0-13.6,0-20.4,0c-0.1,0-0.3,0-0.4,0c-0.3,0-0.5,0.2-0.5,0.5c0,0.1,0,0.3,0,0.4
				C307.4,126.7,307.4,130,307.4,133.4z M398.4,148.8c-4.7,0-9.5,0-14.2,0c-0.1,0-0.3,0-0.4,0c-0.5,0-0.8-0.4-0.9-0.9
				c0-0.1,0-0.3,0-0.4c0-9.4,0-18.8,0-28.2c0-0.1,0-0.2,0-0.3c0-0.6,0.4-0.9,1-1c0.1,0,0.3,0,0.4,0c9.5,0,18.9,0,28.4,0
				c0.1,0,0.1,0,0.1,0c0.7-0.1,1.2,0.3,1.2,1.2c0,9.5,0,19,0,28.4c0,0.1,0,0.2,0,0.2c0,0.6-0.4,0.9-0.9,0.9c-0.4,0-0.8,0-1.2,0
				C407.3,148.8,402.8,148.8,398.4,148.8z M387.3,133.3c0,3.4,0,6.8,0,10.2c0,0.6,0.2,0.8,0.8,0.8c6.9,0,13.8,0,20.7,0
				c0.6,0,0.8-0.2,0.8-0.8c0-0.1,0-0.1,0-0.2c0-6.7,0-13.4,0-20.1c0-0.9-0.1-0.9-1-0.9c-6.8,0-13.5,0-20.3,0c-0.1,0-0.2,0-0.3,0
				c-0.4,0-0.6,0.2-0.6,0.6c0,0.1,0,0.3,0,0.4C387.3,126.7,387.3,130,387.3,133.3z M318.5,197.2c4.7,0,9.4,0,14.1,0
				c0.2,0,0.3,0,0.5,0c0.5,0,0.8,0.4,0.9,0.9c0,0.1,0,0.3,0,0.4c0,9.4,0,18.8,0,28.2c0,0.1,0,0.2,0,0.3c0,0.6-0.4,0.9-1,1
				c-0.1,0-0.3,0-0.4,0c-9.4,0-18.8,0-28.3,0c-0.2,0-0.4,0-0.5,0c-0.5,0-0.8-0.4-0.9-0.9c0-0.1,0-0.3,0-0.4c0-9.4,0-18.8,0-28.2
				c0-0.1,0-0.3,0-0.4c0-0.5,0.4-0.8,0.8-0.8c0.2,0,0.3,0,0.5,0C309,197.2,313.8,197.2,318.5,197.2z M307.4,212.5
				c0,3.4,0,6.8,0,10.2c0,0.6,0.2,0.8,0.8,0.8c0.1,0,0.1,0,0.2,0c6.8,0,13.5,0,20.3,0c0.9,0,1-0.1,1-1c0-6.7,0-13.4,0-20.1
				c0-0.1,0-0.3,0-0.4c0-0.4-0.2-0.5-0.6-0.6c-0.1,0-0.3,0-0.4,0c-6.8,0-13.5,0-20.3,0c-0.1,0-0.3,0-0.4,0c-0.4,0-0.5,0.2-0.6,0.6
				c0,0.1,0,0.3,0,0.4C307.4,205.9,307.4,209.2,307.4,212.5z M384.2,153.2c-0.2,0-0.3,0-0.5,0c-0.4,0.1-0.7,0.3-0.8,0.8
				c0,0.2,0,0.4,0,0.5c0,2.1,0,4.2,0,6.3c0,0.8-0.4,1.1-1.1,1.1c-0.7,0-1.4,0-2,0c-0.8,0-1.4,0.3-1.3,1.3c0,0.7,0,1.3,0,2
				c0,0.8-0.4,1.1-1.2,1.1c-0.7,0-1.5,0-2.2,0c-0.8,0-1.1,0.3-1.1,1.1c0,2.2,0,4.4,0,6.6c0,0.7,0.4,1.1,1.1,1.1c0.7,0,1.5,0,2.2,0
				c0.8,0,1.1-0.3,1.1-1.1c0-0.7,0-1.4,0-2.2c0-0.7,0.4-1.1,1.1-1.1c0.7,0,1.5,0,2.2,0c0.8,0,1.1,0.3,1.2,1.1c0,0.7,0,1.4,0,2.2
				c0,0.8,0.3,1.1,1.1,1.1c0.7,0,1.5,0,2.2,0c0.8,0,1.1,0.3,1.1,1.1c0,0.7,0,1.4,0,2.1c0,0.9,0.3,1.3,1.2,1.3c0.7,0,1.4,0,2.1,0
				c0.7,0,1.2,0.5,1.1,1.1c0,0.7,0,1.5,0,2.2c0,0.7,0.3,1.1,1.1,1.1c2.2,0,4.5,0,6.7,0c0.8,0,1.1-0.3,1.1-1.1c0-0.7,0-1.5,0-2.2
				c0-0.8-0.3-1.1-1.1-1.1c-0.7,0-1.5,0-2.2,0c-0.8,0-1.1-0.3-1.1-1.1c0-0.7,0-1.4,0-2.1c0-0.9-0.3-1.2-1.2-1.2c-0.7,0-1.5,0-2.2,0
				c-0.7,0-1.1-0.4-1.1-1.1c0-0.7,0-1.4,0-2.2c0-0.7,0.4-1.2,1.2-1.2c0.7,0,1.5,0,2.2,0c0.7,0,1.1-0.3,1.1-1c0-0.8,0-1.5,0-2.3
				c0-0.7-0.4-1.1-1.1-1.1c-0.7,0-1.4,0-2,0c-0.8,0-1.4-0.3-1.3-1.3c0-0.7,0-1.3,0-2c0-0.7-0.4-1.1-1.1-1.1c-0.8,0-1.5,0-2.3,0
				c-0.7,0-1.1-0.4-1.1-1c0-0.8,0-1.5,0-2.3c0-0.7,0.4-1.1,1.1-1.1c0.7,0,1.5,0,2.2,0c0.8,0,1.1,0.4,1.1,1.1c0,0.8,0,1.5,0,2.3
				c0,0.6,0.4,1,1,1c0.8,0,1.7,0,2.5,0c0.5,0,0.9-0.3,0.9-0.8c0-0.1,0-0.2,0-0.3c0-2.1,0-4.3,0-6.4c0-0.9-0.3-1.2-1.2-1.2
				c-1.8,0-3.6,0-5.5,0C387.7,153.2,386,153.2,384.2,153.2z M338.1,184c1.2,0,2.4,0,3.6,0c0.8,0,1.1-0.3,1.1-1.1c0-0.7,0-1.5,0-2.2
				c0-0.7-0.5-1.1-1.1-1.1c-0.7,0-1.4,0-2,0c-1,0-1.3-0.3-1.3-1.2c0-0.7,0-1.4,0-2.1c0-0.7-0.4-1.1-1.1-1.1c-0.7,0-1.5,0-2.2,0
				c-0.7,0-1.1,0.3-1.1,1.1c0,0.7,0,1.4,0,2.2c0,0.8-0.3,1.1-1.1,1.2c-0.7,0-1.5,0-2.2,0c-0.8,0-1.1-0.4-1.1-1.1c0-0.7,0-1.4,0-2.1
				c0-0.8,0.3-1.2,1.2-1.2c0.8,0,1.5,0,2.3,0c0.6,0,1-0.4,1-1c0-0.8,0-1.6,0-2.5c0-0.6-0.4-0.9-1-1c-0.1,0-0.3,0-0.4,0
				c-0.7,0-1.4,0-2,0c-0.7,0-1-0.4-1-1c0-0.1,0-0.2,0-0.3c0-0.6,0-1.3,0-1.9c0-0.6-0.4-1.1-1.1-1.1c0,0,0,0-0.1,0
				c-2.2,0-4.4,0-6.6,0c-0.1,0-0.2,0-0.3,0c-0.5,0-0.8,0.4-0.9,0.9c0,0.9,0,1.8,0,2.7c0,0.5,0.4,0.8,0.8,0.8c0.1,0,0.3,0,0.4,0
				c0.7,0,1.4,0,2.1,0c0.7,0,1.1,0.4,1.1,1.1c0,0.1,0,0.1,0,0.2c0,2.1,0,4.2,0,6.2c0,0.1,0,0.3,0,0.4c-0.1,0.5-0.4,0.8-0.9,0.9
				c-0.1,0-0.3,0-0.4,0c-2.2,0-4.3,0-6.5,0c-0.7,0-1.1,0.3-1.1,1.1c0,2.2,0,4.5,0,6.7c0,0.7,0.4,1,1.1,1c0.7,0,1.5,0,2.2,0
				c0.8,0,1.2-0.3,1.2-1.1c0-0.7,0-1.4,0-2.1c0-0.7,0.4-1.2,1.1-1.1c0.2,0,0.4,0,0.6,0c3.1,0,6.2,0,9.3,0
				C333.9,184,336,184,338.1,184z M413.9,167.7c0-0.2,0-0.3,0-0.5c-0.1-0.5-0.4-0.8-0.9-0.8c-0.9,0-1.8,0-2.7,0
				c-0.5,0-0.8,0.4-0.9,0.9c0,0.1,0,0.3,0,0.4c0,0.7,0,1.4,0,2.1c0,0.7-0.4,1-1,1c-0.1,0-0.3,0-0.4,0c-2.1,0-4.1,0-6.2,0
				c-0.9,0-1.2,0.3-1.2,1.2c0,2.1,0,4.3,0,6.4c0,0.8,0.3,1.2,1.2,1.2c0.9,0,1.9,0,2.8,0c1.3,0,2.6,0,3.9,0c0.4,0,0.7,0.1,0.9,0.4
				c0.1,0.2,0.2,0.5,0.2,0.7c0,0.8,0,1.5,0,2.3c0,0.6,0.4,1,1,1c0.3,0,0.7,0,1,0c0.5,0,1,0,1.4,0c0.6,0,1-0.4,1-1c0-0.1,0-0.3,0-0.4
				c0-2.5,0-4.9,0-7.4C413.9,172.7,413.9,170.2,413.9,167.7z M360.7,198.3c0-0.8,0.3-1.1,1.1-1.1c0.7,0,1.5,0,2.2,0
				c0.7,0,1.1-0.4,1.1-1.1c0-0.8,0-1.5,0-2.3c0-0.7-0.4-1.1-1.1-1.1c-0.7,0-1.5,0-2.2,0c-0.8,0-1.1-0.3-1.1-1.1c0-0.8,0-1.5,0-2.3
				c0-0.7-0.4-1-1-1c-0.8,0-1.6,0-2.4,0c-0.6,0-1,0.4-1,1c0,0.1,0,0.3,0,0.4c0,2.1,0,4.2,0,6.2c0,0.3-0.1,0.5-0.2,0.7
				c-0.2,0.3-0.5,0.4-0.9,0.4c-0.8,0-1.5,0-2.3,0c-0.7,0-1.1,0.3-1.1,1.1c0,0.7,0,1.5,0,2.2c0,0.8,0.3,1.1,1.1,1.1
				c0.8,0,1.5,0,2.3,0c0.7,0,1,0.4,1,1c0,0.1,0,0.3,0,0.4c0,2,0,4.1,0,6.2c0,0.9,0.3,1.2,1.2,1.2c0.7,0,1.4,0,2.1,0
				c0.8,0,1.2-0.3,1.2-1.2c0-1.8,0-3.6,0-5.4C360.7,201.9,360.7,200.1,360.7,198.3z M335.3,188.4c-1.6,0-3.1,0-4.7,0
				c-0.7,0-1.1,0.3-1.1,1c0,0.8,0,1.7,0,2.5c0,0.6,0.4,0.9,0.9,0.9c0.1,0,0.3,0,0.4,0c2.1,0,4.1,0,6.2,0c0.1,0,0.3,0,0.4,0
				c0.4,0,0.8,0.3,0.9,0.8c0,0.2,0,0.4,0,0.5c0,2.1,0,4.2,0,6.3c0,0.8,0.3,1.1,1.1,1.1c2.2,0,4.4,0,6.6,0c0.8,0,1.2-0.5,1.1-1.1
				c0-2.2,0-4.3,0-6.5c0-0.7-0.4-1.2-1.2-1.2c-0.7,0-1.5,0-2.2,0c-0.6,0-1-0.4-1-1c0-0.1,0-0.3,0-0.4c0-0.7,0-1.3,0-2
				c0-0.6-0.4-0.9-0.9-1c-0.1,0-0.3,0-0.4,0c-1.8,0-3.5,0-5.3,0C335.9,188.4,335.6,188.4,335.3,188.4z M350.7,227.9
				c0.8,0,1.1-0.3,1.1-1.1c0-3.7,0-7.3,0-11c0-0.8-0.4-1.1-1.1-1.1c-0.7,0-1.4,0-2.1,0c-0.8,0-1.2,0.4-1.2,1.2c0,0.7,0,1.5,0,2.2
				c0,0.7-0.4,1-1,1c-0.1,0-0.3,0-0.4,0c-2.1,0-4.1,0-6.2,0c-0.2,0-0.3,0-0.5,0c-0.4,0.1-0.7,0.4-0.8,0.8c0,0.1,0,0.3,0,0.4
				c0,2.1,0,4.2,0,6.3c0,0.1,0,0.3,0,0.4c0.1,0.4,0.4,0.8,0.8,0.8c0.2,0,0.3,0,0.5,0c1.8,0,3.5,0,5.3,0
				C346.9,227.9,348.8,227.9,350.7,227.9z M378.4,123.5c0-0.8-0.3-1.2-1.2-1.2c-0.7,0-1.4,0-2.1,0c-0.8,0-1.1,0.3-1.1,1.1
				c0,0.7,0,1.4,0,2.1c0,0.7-0.4,1.2-1.2,1.2c-0.7,0-1.4,0-2.1,0c-0.8,0-1.1,0.3-1.1,1.1c0,2.2,0,4.3,0,6.5c0,0.8,0.3,1.2,1.2,1.2
				c0.7,0,1.5,0,2.2,0c0.2,0,0.3,0,0.5,0.1c0.4,0.2,0.6,0.5,0.6,0.9c0,0.8,0,1.6,0,2.4c0,0.6,0.3,1,0.9,1c0.9,0,1.8,0,2.6,0
				c0.5,0,0.9-0.4,0.9-0.9c0-0.1,0-0.3,0-0.4c0-2.5,0-5,0-7.5C378.4,128.6,378.4,126.1,378.4,123.5z M356.2,147.4c0,0.1,0,0.3,0,0.4
				c0.1,0.5,0.4,0.9,0.9,0.9c0.9,0,1.7,0,2.6,0c0.5,0,0.9-0.4,0.9-0.9c0-0.1,0-0.3,0-0.4c0-2.1,0-4.1,0-6.2c0-0.1,0-0.3,0-0.4
				c0.1-0.5,0.4-0.8,0.8-0.8c0.2,0,0.3,0,0.5,0c2.1,0,4.1,0,6.2,0c0.2,0,0.3,0,0.5,0c0.5-0.1,0.8-0.4,0.9-0.9c0-0.9,0-1.8,0-2.7
				c0-0.5-0.4-0.8-0.9-0.8c-0.1,0-0.3,0-0.4,0c-2.1,0-4.2,0-6.4,0c-0.8,0-1.2-0.3-1.2-1.2c0-0.8,0-1.5,0-2.3c0-0.5-0.3-0.9-0.9-1
				c-0.9,0-1.8,0-2.7,0c-0.5,0-0.8,0.4-0.9,0.8c0,0.2,0,0.3,0,0.5c0,2.5,0,5,0,7.4C356.2,142.4,356.2,144.9,356.2,147.4z
				 M396.2,222.4c0,0.6-0.2,0.9-0.7,1c-0.2,0.1-0.4,0.1-0.5,0.1c-0.8,0-1.5,0-2.3,0c-0.6,0-0.9,0.3-1,0.9c0,0.9,0,1.8,0,2.7
				c0,0.5,0.4,0.8,0.9,0.9c0.1,0,0.3,0,0.4,0c2.1,0,4.2,0,6.3,0c0.1,0,0.2,0,0.3,0c0.6,0,0.9-0.4,0.9-0.9c0-0.1,0-0.3,0-0.4
				c0-2.1,0-4.2,0-6.3c0-0.8,0.4-1.1,1.1-1.1c0.7,0,1.5,0,2.2,0c0.8,0,1.1-0.3,1.1-1.1c0-0.7,0-1.5,0-2.2c0-0.7-0.4-1.1-1.1-1.1
				c-2.2,0-4.4,0-6.7,0c-0.7,0-1.1,0.4-1.1,1.1c0,1.1,0,2.2,0,3.2C396.2,220.2,396.2,221.3,396.2,222.4z M338.5,130.2
				c0,0.7,0.4,1,1,1c0.8,0,1.6,0,2.3,0c0.7,0,1.1-0.3,1.1-1.1c0-0.7,0-1.3,0-2c-0.1-1,0.4-1.4,1.4-1.4c2.1,0,4.3,0,6.4,0
				c0.8,0,1.1-0.3,1.1-1.1c0-2.2,0-4.4,0-6.6c0-0.7-0.4-1.1-1.1-1.1c-0.7,0-1.5,0-2.2,0c-0.7,0-1.1,0.3-1.1,1.1c0,0.7,0,1.4,0,2.2
				c0,0.8-0.3,1.2-1.2,1.2c-0.1,0-0.2,0-0.3,0c-2.1,0-4.1,0-6.2,0c-0.3,0-0.5,0-0.8,0.2c-0.3,0.2-0.4,0.5-0.4,0.9c0,1.1,0,2.2,0,3.3
				C338.5,127.9,338.5,129,338.5,130.2z M413.9,215.8c0-0.7-0.3-1.1-1.1-1.1c-0.7,0-1.5,0-2.2,0c-0.7,0-1.1,0.4-1.1,1.1
				c0,0.7,0,1.5,0,2.2c0,0.8-0.4,1.1-1.1,1.1c-0.8,0-1.5,0-2.3,0c-0.6,0-1,0.4-1,1c0,2.3,0,4.6,0,6.9c0,0,0,0,0,0
				c0,0.5,0.4,0.8,0.9,0.9c0.1,0,0.3,0,0.4,0c2.1,0,4.2,0,6.3,0c0.2,0,0.3,0,0.5,0c0.4-0.1,0.7-0.4,0.8-0.8c0-0.2,0-0.3,0-0.5
				c0-1.8,0-3.5,0-5.3C413.9,219.5,413.9,217.7,413.9,215.8z M364,219.1c0.7,0,1.1-0.4,1.1-1.1c0-2.2,0-4.4,0-6.6
				c0-0.7-0.4-1-1.1-1.1c-0.8,0-1.5,0-2.3,0c-0.7,0-1.1,0.3-1.1,1.1c0,0.7,0,1.4,0,2.1c0,0.8-0.3,1.3-1.3,1.2c-0.7,0-1.4,0-2,0
				c-0.8,0-1.1,0.4-1.2,1.1c0,0.7,0,1.4,0,2.1c0,0.8,0.3,1.1,1.1,1.1c1.1,0,2.2,0,3.3,0C361.8,219.1,362.9,219.1,364,219.1z
				 M375.1,219.1c-0.7,0-1.1,0.4-1.1,1.1c0,2.2,0,4.4,0,6.6c0,0.7,0.4,1.1,1.1,1.1c0.8,0,1.5,0,2.3,0c0.7,0,1.1-0.3,1.1-1.1
				c0-0.7,0-1.5,0-2.2c0-0.7,0.3-1.1,1.1-1.1c0.7,0,1.5,0,2.2,0c0.7,0,1.1-0.4,1.1-1.1c0-0.7,0-1.5,0-2.2c0-0.8-0.4-1.1-1.1-1.1
				c-1.1,0-2.2,0-3.3,0C377.3,219.1,376.2,219.1,375.1,219.1z M377.3,162c0.8,0,1.1-0.3,1.1-1.1c0-2.2,0-4.4,0-6.6
				c0-0.7-0.3-1.1-1.1-1.1c-0.7,0-1.5,0-2.2,0c-0.8,0-1.1,0.3-1.1,1.1c0,0.7,0,1.5,0,2.2c0,0.7-0.3,1.1-1.1,1.1c-0.7,0-1.5,0-2.2,0
				c-0.8,0-1.1,0.3-1.1,1.1c0,0.7,0,1.4,0,2.2c0,0.8,0.3,1.1,1.1,1.1c1.1,0,2.2,0,3.3,0C375.1,162,376.2,162,377.3,162z
				 M401.7,153.2c-0.7,0-1.1,0.3-1.1,1.1c0,0.8,0,1.5,0,2.3c0,0.7,0.4,1,1.1,1.1c0.7,0,1.5,0,2.2,0c0.8,0,1.1,0.4,1.1,1.1
				c0,0.8,0,1.5,0,2.3c0,0.7,0.4,1,1,1c0.8,0,1.6,0,2.4,0c0.6,0,1-0.4,1-1c0-0.1,0-0.1,0-0.2c0-2.1,0-4.3,0-6.4
				c0-0.8-0.3-1.2-1.2-1.2c-1.1,0-2.2,0-3.3,0C403.9,153.2,402.8,153.2,401.7,153.2z M311.8,185c0-0.7-0.3-1.1-1.1-1.1
				c-0.8,0-1.6,0-2.3,0c-0.7,0-1,0.4-1,1c0,0.8,0,1.5,0,2.3c0,0.6-0.4,1.1-1.1,1.1c-0.7,0-1.5,0-2.2,0c-0.8,0-1.2,0.3-1.2,1.1
				c0,0.7,0,1.4,0,2.2c0,0.8,0.4,1.1,1.1,1.1c2.2,0,4.4,0,6.6,0c0,0,0.1,0,0.1,0c0.7,0,1-0.4,1-1c0-1.1,0-2.2,0-3.3
				S311.8,186.1,311.8,185z M366.3,179.6c-0.8,0-1.2,0.5-1.2,1.1c0,0.7,0,1.4,0,2.2c0,0.8,0.3,1.1,1.1,1.1c3.7,0,7.4,0,11.1,0
				c0.8,0,1.1-0.3,1.1-1.1c0-0.7,0-1.4,0-2.1c0-0.8-0.3-1.1-1.2-1.1c-1.8,0-3.7,0-5.5,0C369.9,179.6,368.1,179.6,366.3,179.6z
				 M347.3,209.2c0,0.8,0.4,1.1,1.1,1.1c0.7,0,1.5,0,2.2,0c0.8,0,1.1-0.4,1.1-1.1c0-2.2,0-4.4,0-6.6c0-0.8-0.4-1.1-1.1-1.1
				c-0.7,0-1.4,0-2.1,0c-0.6,0-1.2,0.3-1.2,1.2c0,1.1,0,2.2,0,3.2C347.3,207,347.3,208.1,347.3,209.2z M328.5,162
				c0.8,0,1.1-0.3,1.1-1.1c0-0.8,0-1.5,0-2.3c0-0.7-0.4-1.1-1.1-1.1c-2.2,0-4.5,0-6.7,0c-0.6,0-1.1,0.4-1.1,1.1c0,0.7,0,1.5,0,2.2
				c0,0.8,0.5,1.1,1.1,1.1c1.1,0,2.2,0,3.3,0C326.2,162,327.4,162,328.5,162z M397.2,162c-0.7,0-1,0.4-1,1c0,0.8,0,1.6,0,2.4
				c0,0.7,0.4,1,1,1c2.2,0,4.5,0,6.7,0c0.7,0,1.1-0.4,1.1-1.1c0-0.7,0-1.5,0-2.2c0-0.8-0.3-1.1-1.2-1.1c-1.1,0-2.2,0-3.3,0
				C399.5,162,398.3,162,397.2,162z M337.3,157.6c0.8,0,1.2-0.5,1.2-1.1c0-0.7,0-1.4,0-2.2c0-0.8-0.4-1.1-1.1-1.1
				c-2.2,0-4.4,0-6.6,0c-0.8,0-1.1,0.3-1.1,1.1c0,0.7,0,1.4,0,2.1c0,0.8,0.3,1.1,1.2,1.1c1.1,0,2.2,0,3.3,0
				C335.1,157.6,336.2,157.5,337.3,157.6z M310.7,157.6c0.8,0,1.1-0.3,1.1-1.1c0-0.7,0-1.5,0-2.2c0-0.8-0.3-1.1-1.1-1.1
				c-2.2,0-4.5,0-6.7,0c-0.8,0-1.1,0.3-1.1,1.1c0,0.7,0,1.4,0,2.2c0,0.8,0.3,1.1,1.1,1.1c1.1,0,2.2,0,3.3,0
				C308.5,157.6,309.6,157.6,310.7,157.6z M339.6,210.4c-0.8,0-1.1,0.3-1.1,1.1c0,0.7,0,1.5,0,2.2c0,0.8,0.3,1.1,1.1,1.1
				c2.2,0,4.5,0,6.7,0c0.7,0,1.1-0.3,1.1-1.1c0-0.7,0-1.4,0-2.2c0-0.8-0.3-1.1-1.1-1.1c-1.1,0-2.2,0-3.3,0
				C341.8,210.4,340.7,210.4,339.6,210.4z M361.7,122.4c-0.7,0-1.1,0.3-1.1,1.1c0,0.8,0,1.5,0,2.3c0,0.7,0.3,1.1,1.1,1.1
				c2.2,0,4.5,0,6.7,0c0.7,0,1.1-0.3,1.1-1.1c0-0.8,0-1.5,0-2.3c0-0.7-0.5-1.1-1.1-1.1c-1.1,0-2.2,0-3.3,0
				C364,122.4,362.9,122.4,361.7,122.4z M306.4,175.2c0.6,0,1-0.4,1-1c0-0.8,0-1.6,0-2.5c0-0.6-0.4-1-1-1c-0.8,0-1.7,0-2.5,0
				c-0.6,0-1,0.4-1,1c0,0.8,0,1.6,0,2.4c0,0.6,0.4,1,1,1c0.4,0,0.8,0,1.2,0C305.6,175.2,306,175.2,306.4,175.2z M316.3,176.2
				C316.3,176.2,316.3,176.2,316.3,176.2c0-0.7-0.4-1.1-1-1.1c-0.8,0-1.6,0-2.4,0c-0.6,0-1,0.4-1,0.9c0,0.8,0,1.7,0,2.5
				c0,0.6,0.4,0.9,1,0.9c0.8,0,1.7,0,2.5,0c0.6,0,0.9-0.4,1-1c0-0.4,0-0.8,0-1.2C316.3,177,316.3,176.6,316.3,176.2z M347.3,158.6
				c0-0.6-0.4-1-1-1c-0.8,0-1.6,0-2.4,0c-0.6,0-1,0.4-1,1c0,0.8,0,1.6,0,2.4c0,0.6,0.4,1,1,1c0.8,0,1.6,0,2.4,0c0.6,0,1-0.4,1-1
				c0-0.4,0-0.8,0-1.2C347.3,159.4,347.3,159,347.3,158.6z M316.3,158.6c0-0.6-0.4-1-1-1c-0.8,0-1.6,0-2.4,0c-0.6,0-1,0.4-1,1
				c0,0.8,0,1.6,0,2.5c0,0.6,0.4,0.9,1,1c0.8,0,1.7,0,2.5,0c0.6,0,1-0.4,1-1c0-0.4,0-0.8,0-1.2C316.3,159.4,316.3,159,316.3,158.6z
				 M319.6,175.2C319.6,175.2,319.6,175.2,319.6,175.2c0.7,0,1.1-0.4,1.1-1c0-0.8,0-1.6,0-2.5c0-0.6-0.4-1-1-1c-0.8,0-1.7,0-2.5,0
				c-0.6,0-0.9,0.4-0.9,0.9c0,0.8,0,1.7,0,2.5c0,0.6,0.4,0.9,1,0.9c0.4,0,0.8,0,1.2,0C318.9,175.2,319.2,175.2,319.6,175.2z
				 M302.9,165.4c0,0.6,0.4,1,1,1c0.8,0,1.7,0,2.5,0c0.6,0,1-0.4,1-1c0-0.8,0-1.6,0-2.5c0-0.6-0.4-1-1-1c-0.8,0-1.6,0-2.4,0
				c-0.6,0-1,0.4-1,1c0,0.4,0,0.8,0,1.2C302.9,164.6,302.9,165,302.9,165.4z M377.4,148.8c0.6,0,1-0.4,1-1c0-0.8,0-1.6,0-2.5
				c0-0.6-0.4-1-1-1c-0.8,0-1.6,0-2.4,0c-0.6,0-1,0.4-1,1c0,0.8,0,1.6,0,2.4c0,0.6,0.4,1,1,1c0.4,0,0.8,0,1.2,0
				C376.6,148.8,377,148.8,377.4,148.8z M374,120.2c0-0.4,0-0.8,0-1.1c0,0,0-0.1,0-0.1c0-0.6-0.4-1-0.9-1c-0.8,0-1.7,0-2.5,0
				c-0.6,0-0.9,0.4-0.9,0.9c0,0.9,0,1.7,0,2.6c0,0.5,0.4,0.9,0.9,0.9c0.9,0,1.7,0,2.6,0c0.6,0,0.9-0.4,0.9-1
				C374,121,374,120.6,374,120.2C374,120.2,374,120.2,374,120.2z M364.1,188.3c0.6,0,1-0.4,1-0.9c0-0.8,0-1.7,0-2.5
				c0-0.6-0.4-0.9-0.9-0.9c-0.8,0-1.7,0-2.5,0c-0.6,0-1,0.4-1,1c0,0.8,0,1.6,0,2.5c0,0.6,0.4,0.9,1,1c0.4,0,0.8,0,1.2,0
				C363.3,188.3,363.7,188.4,364.1,188.3z M330.6,162c-0.6,0-1,0.4-1,1c0,0.8,0,1.6,0,2.5c0,0.6,0.4,1,1,1c0.8,0,1.7,0,2.5,0
				c0.6,0,1-0.4,1-1c0-0.8,0-1.6,0-2.4c0-0.6-0.4-1-1-1c-0.4,0-0.8,0-1.2,0C331.4,162,331,162,330.6,162z M317.3,162
				c-0.7,0-1,0.4-1.1,1c0,0.8,0,1.6,0,2.4c0,0.6,0.4,1,1,1c0.8,0,1.6,0,2.4,0c0.6,0,1-0.4,1-1c0-0.8,0-1.6,0-2.4c0-0.6-0.4-1-1-1
				c-0.4,0-0.8,0-1.2,0C318.1,162,317.7,162,317.3,162z M409.5,190.5c0,0.4,0,0.8,0,1.2c0,0,0,0.1,0,0.1c0,0.6,0.4,0.9,0.9,0.9
				c0.8,0,1.7,0,2.5,0c0.6,0,0.9-0.4,1-0.9c0-0.8,0-1.7,0-2.6c0-0.5-0.4-0.9-0.9-0.9c-0.9,0-1.7,0-2.6,0c-0.6,0-0.9,0.4-0.9,0.9
				C409.5,189.7,409.5,190.1,409.5,190.5C409.5,190.5,409.5,190.5,409.5,190.5z M303.9,179.6c-0.6,0-1,0.4-1,1c0,0.8,0,1.6,0,2.4
				c0,0.6,0.4,1,0.9,1c0.9,0,1.7,0,2.6,0c0.5,0,0.9-0.4,0.9-0.9c0-0.8,0-1.7,0-2.6c0-0.6-0.4-0.9-1-0.9c-0.4,0-0.8,0-1.2,0
				C304.8,179.6,304.3,179.6,303.9,179.6z M365.1,222.5c0,0.6,0.4,1,1,1c0.8,0,1.6,0,2.4,0c0.6,0,1-0.4,1-1c0-0.8,0-1.7,0-2.5
				c0-0.6-0.4-0.9-0.9-0.9c-0.8,0-1.7,0-2.5,0c-0.6,0-0.9,0.4-1,1c0,0.4,0,0.8,0,1.2C365.1,221.7,365.1,222.1,365.1,222.5z
				 M365.1,147.7C365.1,147.7,365.1,147.7,365.1,147.7c0,0.7,0.4,1.1,1,1.1c0.8,0,1.6,0,2.4,0c0.6,0,1-0.4,1-1c0-0.8,0-1.6,0-2.5
				c0-0.6-0.4-1-1-1c-0.8,0-1.6,0-2.4,0c-0.6,0-1,0.4-1,1c0,0.4,0,0.8,0,1.2C365.1,146.9,365.1,147.3,365.1,147.7z M362.9,223.6
				c-0.4,0-0.8,0-1.2,0c0,0-0.1,0-0.1,0c-0.6,0-0.9,0.4-0.9,0.9c0,0.8,0,1.7,0,2.5c0,0.6,0.4,0.9,0.9,0.9c0.9,0,1.7,0,2.6,0
				c0.5,0,0.9-0.4,0.9-0.9c0-0.9,0-1.7,0-2.6c0-0.6-0.4-0.9-1-0.9C363.7,223.5,363.3,223.6,362.9,223.6L362.9,223.6z M318.5,153.2
				c-0.4,0-0.8,0-1.1,0c0,0-0.1,0-0.1,0c-0.6,0-1,0.4-1,1c0,0.8,0,1.6,0,2.4c0,0.6,0.4,1,1,1c0.8,0,1.7,0,2.5,0c0.6,0,1-0.3,1-0.9
				c0-0.8,0-1.7,0-2.6c0-0.6-0.4-0.9-1-0.9C319.3,153.2,318.9,153.2,318.5,153.2L318.5,153.2z M374,141c0-0.6-0.3-1-1-1
				c-0.8,0-1.7,0-2.5,0c-0.6,0-1,0.4-1,0.9c0,0.8,0,1.6,0,2.5c0,0.6,0.4,1,1,1c0.8,0,1.6,0,2.4,0c0.6,0,1-0.4,1-1c0-0.4,0-0.8,0-1.1
				C374,141.8,374,141.4,374,141z M355.3,214.7c0.6,0,0.9-0.3,0.9-0.9c0-0.8,0-1.7,0-2.5c0-0.6-0.4-0.9-1-0.9c-0.8,0-1.7,0-2.5,0
				c-0.6,0-1,0.3-1,0.9c0,0.8,0,1.7,0,2.5c0,0.6,0.4,0.9,0.9,0.9c0.4,0,0.8,0,1.2,0C354.4,214.7,354.8,214.8,355.3,214.7z
				 M385.1,201.5c0.4,0,0.9,0,1.3,0c0.6,0,0.9-0.4,0.9-0.9c0-0.8,0-1.7,0-2.5c0-0.6-0.4-0.9-0.9-0.9c-0.8,0-1.7,0-2.5,0
				c-0.6,0-0.9,0.4-1,1c0,0.8,0,1.6,0,2.5c0,0.6,0.4,0.9,1,1C384.3,201.5,384.7,201.5,385.1,201.5L385.1,201.5z M325.1,129.8
				c0-0.6,0-1.1,0-1.7c0-1.1-0.3-1.4-1.3-1.4c-3.6,0-7.1,0-10.7,0c-0.1,0-0.3,0-0.4,0c-0.5,0.1-0.9,0.4-0.9,0.9c0,0.1,0,0.3,0,0.4
				c0,3.5,0,7,0,10.6c0,0.1,0,0.2,0,0.3c0,0.6,0.4,1,1,1c0.1,0,0.2,0,0.3,0c3.6,0,7.1,0,10.7,0c0.1,0,0.3,0,0.4,0
				c0.5-0.1,0.8-0.4,0.9-0.9c0-0.1,0-0.3,0-0.4c0-1.7,0-3.5,0-5.2C325.1,132.2,325.1,131,325.1,129.8z M391.7,137.7
				c0,0.4,0,0.9,0,1.3c0,0.5,0.4,0.9,0.9,0.9c0.1,0,0.2,0,0.3,0c3.6,0,7.2,0,10.8,0c0.1,0,0.3,0,0.4,0c0.5-0.1,0.8-0.4,0.8-0.9
				c0-0.1,0-0.3,0-0.4c0-3.6,0-7.1,0-10.7c0-0.1,0-0.2,0-0.3c0-0.5-0.4-0.9-0.9-0.9c-0.1,0-0.3,0-0.4,0c-3.6,0-7.2,0-10.8,0
				c-0.2,0-0.3,0-0.5,0c-0.3,0-0.6,0.2-0.7,0.5c-0.1,0.2-0.1,0.4-0.1,0.6c0,1.8,0,3.6,0,5.5C391.7,134.8,391.7,136.3,391.7,137.7z
				 M324,219.2c0.7,0,1.2-0.4,1.2-1.1c0-3.6,0-7.3,0-10.9c0-0.8-0.4-1.2-1.2-1.2c-3.7,0-7.3,0-11,0c-0.8,0-1.2,0.4-1.2,1.2
				c0,3.6,0,7.2,0,10.9c0,0.9,0.3,1.2,1.2,1.2c1.8,0,3.6,0,5.5,0C320.3,219.1,322.2,219.1,324,219.2z"/>
		</g>
		<g>
			<g>
				<path class="st9" d="M398.5,56.6c0,6-4.9,10.8-10.9,10.8h-58.1c-6,0-10.9-4.9-10.9-10.8v-0.5c0-6,4.9-10.8,10.9-10.8h58.1
					c6,0,10.9,4.9,10.9,10.8V56.6z"/>
				<text transform="matrix(1.0094 0 0 1 347.8828 59.0146)" class="st17 st11 st23">eSCANEA</text>
			</g>
			<path class="st17" d="M340.6,52.7h-0.4v-1.4h-1.6V51h1.9V52.7z M329.9,51.3h1.5V51h-1.8v1.8h0.4V51.3z M331.3,61.6h-1.5V60h-0.4
				v1.9h1.8V61.6z M340.6,60h-0.4v1.6h-1.6v0.4h1.9V60z"/>
		</g>
	</g>
	<g>
		<path class="st6" d="M153.3,186.1c-2.6,13.9-9.9,12.7-18.8,11.1c-8.9-1.7-16.1-3.2-13.5-17.1c2.6-13.9,12-23.8,20.9-22.1
			C150.8,159.6,155.9,172.2,153.3,186.1z"/>
		<path class="st24" d="M150.4,194c-11.1-8.4-23.7-6.6-29.6-5c1.6,5.8,7.1,7,13.6,8.2C141.1,198.4,146.8,199.4,150.4,194z"/>
	</g>
</g>
</svg>
