<svg xmlns="http://www.w3.org/2000/svg" viewBox="0 0 38.06 38.06"><defs><style>.cls-1,.cls-2{fill:#fff;}.cls-2{fill-rule:evenodd;}</style></defs><title>icono-whatsapp</title><g id="Capa_2" data-name="Capa 2"><g id="Capa_1-2" data-name="Capa 1"><rect class="cls-1" width="38.06" height="38.06" rx="19.03"/><path class="cls-2" d="M29.46,18.5A10.25,10.25,0,0,0,9,18.32c0,.14,0,.29,0,.44A10.12,10.12,0,0,0,10.44,24L8.59,29.47l5.68-1.8a10.34,10.34,0,0,0,4.95,1.26A10.21,10.21,0,0,0,29.47,18.76,2.35,2.35,0,0,0,29.46,18.5ZM19.22,27.31a8.63,8.63,0,0,1-4.74-1.41L11.17,27l1.07-3.17a8.52,8.52,0,0,1-1.64-5,7.7,7.7,0,0,1,.05-.83,8.62,8.62,0,0,1,17.16.16c0,.23,0,.45,0,.67A8.59,8.59,0,0,1,19.22,27.31Z"/><path class="cls-2" d="M23.92,20.82c-.26-.13-1.49-.73-1.72-.82s-.4-.12-.57.13-.65.81-.79,1-.3.19-.55.07a7,7,0,0,1-2-1.24,8.08,8.08,0,0,1-1.4-1.72A.37.37,0,0,1,17,17.7c.12-.12.25-.3.38-.44a.47.47,0,0,0,.09-.12,2.72,2.72,0,0,0,.16-.3.41.41,0,0,0,0-.43c-.06-.13-.56-1.36-.77-1.86s-.42-.41-.57-.41l-.48,0a.92.92,0,0,0-.67.31,2.78,2.78,0,0,0-.88,2.08,3,3,0,0,0,.13.85,5.52,5.52,0,0,0,.9,1.73,10.23,10.23,0,0,0,4.29,3.76c2.55,1,2.55.67,3,.62a2.52,2.52,0,0,0,1.7-1.18,2.12,2.12,0,0,0,.15-1.19C24.33,21,24.17,20.94,23.92,20.82Z"/></g></g></svg>