<svg xmlns="http://www.w3.org/2000/svg" viewBox="0 0 110.74 20.87"><defs><style>.cls-1{fill:#373435;fill-rule:evenodd;}.cls-2{isolation:isolate;}.cls-3{fill:#ffcc29;}</style></defs><title>Recurso 4</title><g id="Capa_2" data-name="Capa 2"><g id="Capa_1-2" data-name="Capa 1"><path class="cls-1" d="M63.08,1.28a1.65,1.65,0,1,1,3.1,1.15L60.43,17.09l0,.11a7,7,0,0,1-2,2.66,4.71,4.71,0,0,1-2.85,1h-1.8a1.67,1.67,0,0,1,0-3.33h1.77a1.43,1.43,0,0,0,.85-.31,3.61,3.61,0,0,0,1-1.37l.22-.59-5-11.83a4.52,4.52,0,0,1-.45-1.53A1.77,1.77,0,0,1,52.39,1,1.81,1.81,0,0,1,53.1.29,1.88,1.88,0,0,1,54,0a1.52,1.52,0,0,1,1.28.54,5.86,5.86,0,0,1,.77,1.55l3.22,8.49ZM3.81,2.48l2.57,8.8L8.71,3.1c.25-.85.44-1.44.56-1.75A2.19,2.19,0,0,1,10,.45,2,2,0,0,1,11.31,0a2.06,2.06,0,0,1,1.37.42,2.38,2.38,0,0,1,.7.93A17.71,17.71,0,0,1,14,3.1l2.33,8.18,2.6-8.8c.17-.63.31-1.09.41-1.38a1.94,1.94,0,0,1,.54-.75A1.64,1.64,0,0,1,20.91,0a1.73,1.73,0,0,1,1.23.49,1.56,1.56,0,0,1,.52,1.15,6,6,0,0,1-.45,1.84L19,12.94c-.28.8-.49,1.37-.65,1.73a2.43,2.43,0,0,1-.73.95,2,2,0,0,1-1.36.42,2,2,0,0,1-1.4-.45,2.54,2.54,0,0,1-.76-1.09c-.16-.43-.34-1-.53-1.69L11.31,5.14,9.13,12.81a9.44,9.44,0,0,1-.94,2.42A1.91,1.91,0,0,1,6.42,16a2.28,2.28,0,0,1-1.11-.25,2.15,2.15,0,0,1-.75-.72A6,6,0,0,1,4,14l-.36-1L.48,3.51A6.68,6.68,0,0,1,0,1.67,1.54,1.54,0,0,1,.51.54,1.66,1.66,0,0,1,1.74,0,1.44,1.44,0,0,1,3.07.59a8.24,8.24,0,0,1,.74,1.89Zm33.5,8.16V14.2a1.94,1.94,0,0,1-1.93,1.94h0a1.94,1.94,0,0,1-1.94-1.94v-.12A9.8,9.8,0,0,1,31,15.49,7.73,7.73,0,0,1,28,16a5.68,5.68,0,0,1-2.67-.6,4.48,4.48,0,0,1-1.77-1.62,4.23,4.23,0,0,1-.62-2.22,3.93,3.93,0,0,1,1-2.75,5.67,5.67,0,0,1,2.82-1.53c2.23-.66,4.41-.89,6.65-1.55a4.15,4.15,0,0,0-.58-2.29,2.78,2.78,0,0,0-2.3-.73,4.73,4.73,0,0,0-2.25.42A3.44,3.44,0,0,0,27,4.42a12.35,12.35,0,0,1-.77,1.1,1.25,1.25,0,0,1-1,.27,1.64,1.64,0,0,1-1.14-.43,1.35,1.35,0,0,1-.49-1.09,3.34,3.34,0,0,1,.74-2A5.24,5.24,0,0,1,26.67.64,10.19,10.19,0,0,1,30.55,0a11,11,0,0,1,4.09.62,3.74,3.74,0,0,1,2.09,1.94,7.81,7.81,0,0,1,.62,3.52c0,.92,0,1.7,0,2.35s0,1.36,0,2.15Zm-3.87,1V9a2.18,2.18,0,0,1,0-.25V8.14c-1.49.54-3.2.78-4.75,1.17a3.26,3.26,0,0,0-1.21.65,1.68,1.68,0,0,0-.58,1.36,2,2,0,0,0,.68,1.52,2.49,2.49,0,0,0,1.77.63A4.65,4.65,0,0,0,31.5,13,6.46,6.46,0,0,0,33.44,11.61Zm14.21,2.8-2.86-4.19-2.92,4.19a6.94,6.94,0,0,1-1.07,1.26,1.68,1.68,0,0,1-1.12.37,1.87,1.87,0,0,1-1.28-.47,1.4,1.4,0,0,1-.52-1.07,3.62,3.62,0,0,1,.8-1.77l3.56-5.11L39.09,3.36a3.31,3.31,0,0,1-.82-1.83,1.37,1.37,0,0,1,.49-1A1.8,1.8,0,0,1,40,0a1.72,1.72,0,0,1,1.15.39,7.5,7.5,0,0,1,1.05,1.22l2.55,3.5,2.49-3.5A7,7,0,0,1,48.35.4,1.71,1.71,0,0,1,49.48,0a1.92,1.92,0,0,1,1.29.44,1.35,1.35,0,0,1,.51,1.06,2,2,0,0,1-.2.86,9.62,9.62,0,0,1-.65,1L47.28,7.62l3.55,5.11a3.68,3.68,0,0,1,.84,1.8,1.33,1.33,0,0,1-.52,1.06,1.89,1.89,0,0,1-1.28.45,1.76,1.76,0,0,1-1.15-.39A6.22,6.22,0,0,1,47.65,14.41Z"/><g class="cls-2"><path class="cls-3" d="M65.16,16.26a1.76,1.76,0,0,1-1.2-.45,1.6,1.6,0,0,1-.5-1.25,1.62,1.62,0,0,1,.48-1.17,1.59,1.59,0,0,1,1.18-.49,1.66,1.66,0,0,1,1.2.48,1.73,1.73,0,0,1,0,2.43A1.68,1.68,0,0,1,65.16,16.26Z"/></g><g class="cls-2"><path class="cls-3" d="M75.82,11.91v2.95a1.55,1.55,0,0,1-.32,1.05,1.09,1.09,0,0,1-.84.35,1.05,1.05,0,0,1-.81-.35,1.55,1.55,0,0,1-.32-1.05V11.32c0-.56,0-1,0-1.3a1.41,1.41,0,0,0-.31-.76,1,1,0,0,0-.8-.3,1.4,1.4,0,0,0-1.43.75,5.3,5.3,0,0,0-.35,2.15v3a1.5,1.5,0,0,1-.31,1,1.13,1.13,0,0,1-1.65,0,1.46,1.46,0,0,1-.32-1V8.51a1.34,1.34,0,0,1,.29-1,1,1,0,0,1,.76-.33,1,1,0,0,1,.76.31,1.14,1.14,0,0,1,.3.84v.21a3.88,3.88,0,0,1,1.24-1,3.3,3.3,0,0,1,1.46-.32,3,3,0,0,1,1.44.33,2.6,2.6,0,0,1,1,1,3.85,3.85,0,0,1,1.2-1,3.07,3.07,0,0,1,1.43-.33,3.18,3.18,0,0,1,1.56.36,2.32,2.32,0,0,1,1,1A4.68,4.68,0,0,1,81,10.52v4.34a1.55,1.55,0,0,1-.31,1.05,1.12,1.12,0,0,1-.84.35A1.07,1.07,0,0,1,79,15.9a1.5,1.5,0,0,1-.32-1V11.13A8.75,8.75,0,0,0,78.65,10a1.27,1.27,0,0,0-.33-.72,1,1,0,0,0-.81-.3,1.5,1.5,0,0,0-.83.26,1.82,1.82,0,0,0-.62.7A5.7,5.7,0,0,0,75.82,11.91Z"/></g><g class="cls-2"><path class="cls-3" d="M89.36,12.29H85a3,3,0,0,0,.31,1.33,2,2,0,0,0,.78.87,2,2,0,0,0,1.09.29,2.75,2.75,0,0,0,.73-.09,2.44,2.44,0,0,0,.64-.29,4.87,4.87,0,0,0,.56-.43c.18-.15.4-.36.68-.62a.77.77,0,0,1,.49-.14.83.83,0,0,1,.55.18.69.69,0,0,1,.21.53,1.54,1.54,0,0,1-.23.71,3,3,0,0,1-.72.77,3.8,3.8,0,0,1-1.19.61,5.22,5.22,0,0,1-1.66.25A4.43,4.43,0,0,1,83.94,15a4.57,4.57,0,0,1-1.19-3.31,5.4,5.4,0,0,1,.3-1.83,4,4,0,0,1,.85-1.44,3.6,3.6,0,0,1,1.38-.92,4.87,4.87,0,0,1,1.82-.32,4.26,4.26,0,0,1,2.23.55,3.58,3.58,0,0,1,1.4,1.41A3.72,3.72,0,0,1,91.19,11c0,.55-.16.92-.48,1.08A2.93,2.93,0,0,1,89.36,12.29ZM85,11h4a2.62,2.62,0,0,0-.61-1.7A1.82,1.82,0,0,0,87,8.76a1.77,1.77,0,0,0-1.36.57A2.88,2.88,0,0,0,85,11Z"/></g><g class="cls-2"><path class="cls-3" d="M95.08,8.46v.27a3.88,3.88,0,0,1,1.28-1.14A3.39,3.39,0,0,1,98,7.23a3.23,3.23,0,0,1,1.57.38,2.41,2.41,0,0,1,1,1.09,2.42,2.42,0,0,1,.29.87,10,10,0,0,1,.06,1.21v4.13a1.46,1.46,0,0,1-.3,1,1,1,0,0,1-.79.35,1.05,1.05,0,0,1-.81-.35,1.51,1.51,0,0,1-.31-1v-3.7a3.77,3.77,0,0,0-.3-1.68A1.25,1.25,0,0,0,97.17,9a1.85,1.85,0,0,0-1.08.35,2.07,2.07,0,0,0-.71,1,6.82,6.82,0,0,0-.17,1.86v2.78a1.44,1.44,0,0,1-.31,1,1.08,1.08,0,0,1-.81.34,1,1,0,0,1-.79-.35,1.51,1.51,0,0,1-.31-1V8.49a1.39,1.39,0,0,1,.28-.94A1,1,0,0,1,94,7.23a1.08,1.08,0,0,1,.53.14,1,1,0,0,1,.37.42A1.36,1.36,0,0,1,95.08,8.46Z"/></g><g class="cls-2"><path class="cls-3" d="M108.66,15v-.28a5.21,5.21,0,0,1-.84.85,3.14,3.14,0,0,1-1,.5,3.86,3.86,0,0,1-1.18.17,3.13,3.13,0,0,1-1.45-.33,2.49,2.49,0,0,1-1-.92,4,4,0,0,1-.42-2V8.56a1.44,1.44,0,0,1,.3-1,1.13,1.13,0,0,1,1.61,0,1.38,1.38,0,0,1,.31,1v3.55a5.32,5.32,0,0,0,.13,1.3,1.55,1.55,0,0,0,.47.82,1.31,1.31,0,0,0,.91.29,1.87,1.87,0,0,0,1.06-.33,1.91,1.91,0,0,0,.72-.87,6.73,6.73,0,0,0,.19-2.06V8.56a1.38,1.38,0,0,1,.31-1,1,1,0,0,1,.8-.34,1,1,0,0,1,.8.33,1.44,1.44,0,0,1,.3,1V15a1.38,1.38,0,0,1-.29.95,1,1,0,0,1-.74.32.94.94,0,0,1-.75-.33A1.33,1.33,0,0,1,108.66,15Z"/></g></g></g></svg>